<?xml version="1.0" standalone="no"?>
<!DOCTYPE svg PUBLIC "-//W3C//DTD SVG 20010904//EN"
 "http://www.w3.org/TR/2001/REC-SVG-20010904/DTD/svg10.dtd">
<svg version="1.0" xmlns="http://www.w3.org/2000/svg"
 width="1024.000000pt" height="1291.000000pt" viewBox="0 0 1024.000000 1291.000000"
 preserveAspectRatio="xMidYMid meet">

<g transform="translate(0.000000,1291.000000) scale(0.100000,-0.100000)"
fill="#000000" stroke="none">
<path d="M0 12630 l0 -280 5120 0 5120 0 0 280 0 280 -5120 0 -5120 0 0 -280z
m470 -5 l0 -155 -155 0 -155 0 0 155 0 155 155 0 155 0 0 -155z"/>
<path d="M170 12625 l0 -145 145 0 145 0 0 145 0 145 -145 0 -145 0 0 -145z"/>
<path d="M1127 11982 c-33 -36 -10 -102 36 -102 23 0 57 36 57 60 0 25 -34 60
-58 60 -11 0 -26 -8 -35 -18z m61 -40 c2 -22 -2 -34 -12 -38 -34 -13 -61 37
-34 64 21 21 43 9 46 -26z"/>
<path d="M1350 11980 c0 -13 -5 -18 -15 -14 -21 8 -45 -14 -45 -41 0 -29 18
-43 53 -43 26 0 27 2 27 59 0 33 -4 59 -10 59 -5 0 -10 -9 -10 -20z m-3 -46
c8 -21 -13 -42 -28 -27 -13 13 -5 43 11 43 6 0 13 -7 17 -16z"/>
<path d="M1590 11940 c0 -33 4 -60 10 -60 6 0 10 27 10 60 0 33 -4 60 -10 60
-6 0 -10 -27 -10 -60z"/>
<path d="M1690 11980 c0 -13 -5 -18 -15 -14 -21 8 -45 -14 -45 -41 0 -29 18
-43 53 -43 26 0 27 2 27 59 0 33 -4 59 -10 59 -5 0 -10 -9 -10 -20z m-3 -46
c8 -21 -13 -42 -28 -27 -13 13 -5 43 11 43 6 0 13 -7 17 -16z"/>
<path d="M3260 11941 c0 -48 3 -61 15 -61 8 0 15 9 15 19 0 12 8 21 21 23 12
2 27 11 33 21 17 26 -4 51 -48 55 l-36 3 0 -60z m65 19 c0 -8 -8 -16 -17 -18
-13 -2 -18 3 -18 18 0 15 5 20 18 18 9 -2 17 -10 17 -18z"/>
<path d="M5540 11980 c-14 -26 -7 -37 30 -45 17 -4 30 -13 30 -21 0 -16 -36
-19 -45 -4 -8 13 -25 13 -25 0 0 -16 41 -32 66 -26 17 5 24 13 24 31 0 20 -6
27 -30 32 -17 3 -33 10 -36 14 -9 15 25 22 41 9 20 -17 32 -5 15 15 -18 22
-57 19 -70 -5z"/>
<path d="M8180 11940 l0 -61 37 3 c29 2 41 9 53 31 13 24 13 30 0 55 -12 21
-24 28 -53 30 l-37 3 0 -61z m70 20 c13 -24 -3 -60 -25 -60 -11 0 -15 12 -15
40 0 44 21 55 40 20z"/>
<path d="M5638 11979 c-2 -7 -1 -30 2 -53 3 -28 10 -42 23 -44 15 -3 16 0 5
23 -8 19 -9 31 -1 43 7 13 7 21 -3 30 -16 15 -21 15 -26 1z"/>
<path d="M5788 11978 c-8 -24 4 -98 16 -98 10 0 12 23 7 103 -1 12 -19 8 -23
-5z"/>
<path d="M8388 11978 c-8 -24 4 -98 16 -98 10 0 12 23 7 103 -1 12 -19 8 -23
-5z"/>
<path d="M1230 11924 c0 -24 5 -44 10 -44 6 0 10 11 10 24 0 14 7 31 15 40 20
19 19 21 -10 22 -23 2 -25 -1 -25 -42z"/>
<path d="M1402 11958 c-30 -30 -2 -86 38 -73 29 9 25 27 -5 19 -15 -4 -25 -2
-25 5 0 6 13 11 30 11 24 0 28 3 23 18 -12 32 -40 41 -61 20z m38 -18 c0 -5
-7 -10 -15 -10 -8 0 -15 5 -15 10 0 6 7 10 15 10 8 0 15 -4 15 -10z"/>
<path d="M1480 11924 c0 -24 5 -44 10 -44 6 0 10 11 10 24 0 14 7 31 15 40 20
19 19 21 -10 22 -23 2 -25 -1 -25 -42z"/>
<path d="M3370 11924 c0 -24 5 -44 10 -44 6 0 10 13 10 29 0 17 5 33 10 36 16
10 11 21 -10 22 -17 2 -20 -4 -20 -43z"/>
<path d="M3441 11961 c-30 -19 -11 -80 26 -81 16 0 43 28 43 45 0 17 -27 45
-43 45 -7 0 -18 -4 -26 -9z m47 -34 c4 -21 -27 -35 -38 -17 -12 19 0 42 19 38
9 -2 17 -11 19 -21z"/>
<path d="M3529 11948 c-16 -30 4 -72 32 -65 13 3 19 1 16 -6 -2 -7 -14 -11
-27 -9 -14 2 -20 0 -16 -7 9 -15 39 -14 54 1 7 7 12 33 12 58 0 45 -1 47 -30
48 -21 0 -33 -6 -41 -20z m48 -14 c8 -21 -13 -42 -28 -27 -13 13 -5 43 11 43
6 0 13 -7 17 -16z"/>
<path d="M3620 11924 c0 -24 5 -44 10 -44 6 0 10 11 10 24 0 14 7 31 15 40 20
19 19 21 -10 22 -23 2 -25 -1 -25 -42z"/>
<path d="M3692 11958 c-16 -16 -15 -53 3 -68 16 -14 47 -10 52 6 2 7 -6 10
-22 7 -15 -3 -25 -1 -25 6 0 6 14 11 30 11 33 0 35 3 20 31 -12 21 -40 25 -58
7z m38 -18 c0 -5 -4 -10 -9 -10 -6 0 -13 5 -16 10 -3 6 1 10 9 10 9 0 16 -4
16 -10z"/>
<path d="M3782 11958 c-19 -19 -15 -27 21 -43 l32 -15 -32 5 c-39 5 -45 -12
-8 -21 25 -6 55 9 55 27 0 5 -11 14 -25 19 -30 12 -34 24 -4 15 15 -5 20 -3
17 6 -6 19 -40 23 -56 7z"/>
<path d="M3871 11956 c-14 -17 -7 -36 14 -36 8 0 17 -5 21 -11 5 -9 -1 -10
-20 -5 -21 5 -27 3 -24 -6 3 -7 18 -13 34 -13 41 0 46 36 7 53 l-28 12 28 -6
c21 -3 28 -1 25 8 -7 19 -43 21 -57 4z"/>
<path d="M5703 11964 c-24 -10 -13 -24 12 -18 33 8 32 -4 -1 -16 -37 -15 -28
-45 14 -47 33 -1 33 -1 30 40 -3 42 -21 55 -55 41z m37 -54 c0 -5 -7 -10 -15
-10 -8 0 -15 5 -15 10 0 6 7 10 15 10 8 0 15 -4 15 -10z"/>
<path d="M5842 11928 c3 -41 5 -43 36 -45 32 -1 32 -1 32 43 0 24 -4 44 -10
44 -5 0 -10 -16 -10 -35 0 -24 -5 -35 -15 -35 -10 0 -15 11 -15 35 0 19 -5 35
-11 35 -6 0 -9 -17 -7 -42z"/>
<path d="M5941 11956 c-14 -17 -7 -36 14 -36 8 0 17 -5 21 -11 5 -9 -1 -10
-20 -5 -21 5 -27 3 -24 -6 3 -7 18 -13 34 -13 41 0 46 36 7 53 l-28 12 28 -6
c21 -3 28 -1 25 8 -7 19 -43 21 -57 4z"/>
<path d="M8300 11955 c-12 -14 -11 -16 13 -10 34 9 35 -2 1 -15 -38 -15 -28
-44 17 -47 l35 -2 -5 42 c-5 33 -11 43 -27 45 -11 2 -27 -4 -34 -13z m40 -45
c0 -5 -7 -10 -15 -10 -8 0 -15 5 -15 10 0 6 7 10 15 10 8 0 15 -4 15 -10z"/>
<path d="M8439 11949 c-24 -46 29 -93 62 -53 11 13 9 14 -13 9 -15 -4 -29 -2
-32 4 -5 7 4 11 23 11 32 0 41 16 19 38 -19 19 -46 14 -59 -9z m41 -9 c0 -5
-4 -10 -10 -10 -5 0 -10 5 -10 10 0 6 5 10 10 10 6 0 10 -4 10 -10z"/>
<path d="M496 11544 c-11 -10 -16 -34 -16 -74 0 -94 -12 -90 305 -90 317 0
305 -4 305 90 0 94 12 90 -305 90 -235 0 -276 -2 -289 -16z m74 -59 c0 -33 -4
-45 -15 -45 -10 0 -15 10 -15 30 0 17 -5 30 -12 30 -12 0 21 29 35 30 4 0 7
-20 7 -45z m80 35 c0 -5 -5 -10 -11 -10 -5 0 -7 -5 -3 -12 5 -8 11 -5 17 10
11 24 51 30 61 10 5 -10 7 -10 12 0 7 14 54 16 54 2 0 -5 -8 -10 -17 -11 -14
0 -15 -2 -3 -6 8 -3 18 -11 22 -16 4 -6 12 1 19 16 14 31 39 36 39 8 0 -11 2
-25 5 -33 7 -18 -15 -48 -22 -30 -6 14 -39 16 -48 2 -9 -14 -42 -12 -49 3 -5
10 -7 10 -12 0 -7 -16 -54 -17 -54 -1 0 9 -3 9 -12 0 -18 -18 -58 -15 -58 3 0
9 6 15 14 13 8 -2 15 2 15 7 0 6 -7 9 -15 7 -9 -2 -14 6 -14 23 0 21 5 25 30
25 17 0 30 -4 30 -10z m268 3 c-2 -5 -10 -25 -18 -45 -14 -39 -30 -50 -30 -22
0 8 5 24 10 35 9 16 7 19 -10 19 -11 0 -20 5 -20 10 0 6 16 10 36 10 20 0 34
-3 32 -7z m62 -3 c0 -5 -8 -10 -17 -11 -13 0 -14 -2 -4 -6 7 -3 22 -14 33 -25
10 -10 23 -16 29 -13 14 9 1 25 -16 18 -11 -4 -15 2 -15 21 0 22 4 26 30 26
17 0 30 -4 30 -10 0 -5 -5 -10 -10 -10 -6 0 -6 -7 1 -19 7 -10 9 -26 6 -35 -7
-18 -57 -22 -57 -4 0 9 -3 9 -12 0 -32 -32 -67 2 -54 54 5 17 13 24 31 24 14
0 25 -4 25 -10z"/>
<path d="M682 11485 c0 -16 2 -22 5 -12 2 9 2 23 0 30 -3 6 -5 -1 -5 -18z"/>
<path d="M6953 11543 c-7 -2 -13 -12 -13 -21 0 -13 2 -13 13 3 8 10 19 15 25
11 16 -9 15 -36 0 -36 -6 0 -4 -6 6 -13 11 -8 15 -19 10 -30 -8 -22 -30 -22
-44 1 -10 15 -10 15 -8 -3 4 -25 40 -31 58 -10 11 13 11 21 3 35 -8 12 -9 20
-1 28 8 8 8 15 -2 27 -13 15 -25 17 -47 8z"/>
<path d="M7600 11530 c-6 -11 -7 -20 -1 -20 5 0 11 7 15 15 7 20 25 19 33 -1
4 -10 -6 -26 -26 -44 -42 -39 -39 -50 12 -48 36 1 38 2 10 5 -18 2 -33 7 -33
10 0 3 14 18 31 34 25 24 28 31 19 49 -14 26 -46 26 -60 0z"/>
<path d="M7689 11523 c-5 -14 -7 -39 -3 -55 12 -59 64 -42 64 21 0 61 -42 84
-61 34z m46 -34 c0 -32 -4 -44 -15 -44 -16 0 -26 54 -16 82 12 30 31 6 31 -38z"/>
<path d="M7780 11530 c-6 -11 -7 -20 -1 -20 5 0 11 7 15 15 7 20 25 19 33 -1
4 -10 -6 -26 -26 -44 -42 -39 -39 -50 12 -48 36 1 38 2 10 5 -18 2 -33 7 -33
10 0 3 14 18 31 34 25 24 28 31 19 49 -14 26 -46 26 -60 0z"/>
<path d="M7884 11525 c-11 -8 -14 -15 -6 -15 7 0 12 -15 12 -40 0 -22 5 -40
10 -40 6 0 10 25 10 55 0 30 -1 55 -3 55 -2 0 -12 -7 -23 -15z"/>
<path d="M4930 11486 c0 -25 5 -46 10 -46 6 0 10 7 10 15 0 8 7 15 15 15 8 0
15 -7 15 -15 0 -8 4 -15 9 -15 5 0 9 19 8 43 -2 40 -4 42 -34 45 -33 3 -33 3
-33 -42z m50 14 c0 -5 -7 -10 -15 -10 -8 0 -15 5 -15 10 0 6 7 10 15 10 8 0
15 -4 15 -10z"/>
<path d="M5190 11520 c0 -5 -6 -10 -14 -10 -21 0 -38 -27 -31 -50 4 -14 15
-20 36 -20 26 0 29 3 30 33 l1 32 12 -35 c9 -23 10 -39 3 -47 -7 -9 -5 -13 5
-13 8 0 21 21 30 50 16 51 10 69 -10 28 -7 -15 -11 -18 -11 -8 -1 9 -10 23
-21 33 -23 20 -30 21 -30 7z m-2 -48 c2 -7 -3 -12 -12 -12 -9 0 -16 7 -16 16
0 17 22 14 28 -4z"/>
<path d="M7068 11460 c-2 -37 1 -59 7 -57 13 5 19 117 6 117 -5 0 -11 -27 -13
-60z"/>
<path d="M7117 11514 c-14 -14 -7 -26 8 -14 8 6 19 9 25 5 17 -11 11 -23 -12
-27 -15 -2 -23 -10 -23 -23 0 -16 7 -20 30 -20 30 -1 31 0 25 40 -4 30 -10 41
-25 43 -12 2 -24 0 -28 -4z m41 -56 c-7 -19 -38 -22 -38 -4 0 10 9 16 21 16
12 0 19 -5 17 -12z"/>
<path d="M7201 11471 l2 -46 6 40 c4 26 12 41 23 43 13 3 18 -6 21 -40 l4 -43
-1 45 c-1 42 -3 45 -28 46 -27 1 -28 -1 -27 -45z"/>
<path d="M7294 11478 c1 -40 3 -43 29 -44 26 -1 27 1 26 45 l-2 46 -6 -40 c-9
-57 -38 -61 -44 -6 l-4 41 1 -42z"/>
<path d="M7387 11514 c-14 -14 -7 -26 8 -14 11 9 19 10 26 3 8 -8 2 -15 -18
-25 -40 -19 -37 -43 8 -44 l35 -2 -5 42 c-5 31 -11 42 -26 44 -12 2 -24 0 -28
-4z m41 -56 c-7 -19 -38 -22 -38 -4 0 10 9 16 21 16 12 0 19 -5 17 -12z"/>
<path d="M7460 11473 c0 -24 5 -43 10 -43 6 0 10 15 10 33 0 18 4 37 10 43 6
6 3 10 -10 10 -17 0 -20 -7 -20 -43z"/>
<path d="M7523 11475 c0 -27 2 -38 4 -22 2 15 2 37 0 50 -2 12 -4 0 -4 -28z"/>
<path d="M5014 11496 c-10 -26 1 -51 24 -54 12 -2 22 2 22 8 0 7 -7 10 -15 6
-8 -3 -15 -1 -15 4 0 6 9 10 20 10 23 0 26 10 8 28 -16 16 -37 15 -44 -2z"/>
<path d="M5086 11501 c-4 -5 2 -12 11 -14 17 -4 17 -5 1 -6 -11 -1 -18 -9 -18
-21 0 -15 7 -20 29 -20 27 0 28 2 22 32 -7 32 -33 49 -45 29z"/>
<path d="M6953 11353 c-7 -2 -13 -12 -13 -21 0 -13 2 -13 13 3 8 10 19 15 25
11 16 -9 15 -36 0 -36 -6 0 -4 -6 6 -13 11 -8 15 -19 10 -30 -8 -22 -30 -22
-44 1 -10 15 -10 15 -8 -3 4 -25 40 -31 58 -10 11 13 11 21 3 35 -8 12 -9 20
-1 28 8 8 8 15 -2 27 -13 15 -25 17 -47 8z"/>
<path d="M7210 11340 c-6 -11 -7 -20 -1 -20 5 0 11 7 15 15 7 20 25 19 33 -1
4 -10 -6 -26 -26 -44 -42 -39 -39 -50 12 -48 36 1 38 2 10 5 -18 2 -33 7 -33
10 0 3 14 18 31 34 25 24 28 31 19 49 -14 26 -46 26 -60 0z"/>
<path d="M7299 11333 c-5 -14 -7 -39 -3 -55 12 -59 64 -42 64 21 0 61 -42 84
-61 34z m46 -34 c0 -32 -4 -44 -15 -44 -16 0 -26 54 -16 82 12 30 31 6 31 -38z"/>
<path d="M7392 11348 c-20 -20 -14 -33 7 -14 21 19 41 14 41 -9 0 -7 -13 -23
-30 -35 -42 -30 -39 -50 8 -49 30 2 32 3 10 6 -35 5 -35 18 -2 39 18 12 24 24
22 43 -3 29 -35 40 -56 19z"/>
<path d="M7094 11335 c-11 -8 -14 -15 -6 -15 7 0 12 -15 12 -40 0 -22 5 -40
10 -40 6 0 10 25 10 55 0 30 -1 55 -3 55 -2 0 -12 -7 -23 -15z"/>
<path d="M7494 11335 c-11 -8 -14 -15 -6 -15 7 0 12 -15 12 -40 0 -22 5 -40
10 -40 6 0 10 25 10 55 0 30 -1 55 -3 55 -2 0 -12 -7 -23 -15z"/>
<path d="M7026 11274 c-4 -14 -5 -28 -3 -31 3 -2 8 8 11 23 4 14 5 28 3 31 -3
2 -8 -8 -11 -23z"/>
<path d="M496 10724 c-11 -10 -16 -34 -16 -74 0 -94 -12 -90 305 -90 317 0
305 -4 305 90 0 94 12 90 -305 90 -235 0 -276 -2 -289 -16z m74 -59 c0 -33 -4
-45 -15 -45 -10 0 -15 10 -15 30 0 17 -5 30 -12 30 -12 0 21 29 35 30 4 0 7
-20 7 -45z m80 35 c0 -5 -5 -10 -11 -10 -5 0 -7 -5 -3 -12 5 -8 11 -5 17 10
11 23 57 31 57 10 0 -9 3 -9 12 0 17 17 48 15 55 -4 5 -15 7 -15 15 0 11 19
39 21 56 4 9 -9 12 -9 12 0 0 18 47 14 54 -4 4 -10 -1 -25 -10 -35 -14 -16
-15 -19 -2 -19 8 0 22 16 31 35 20 43 47 47 48 8 l1 -28 7 25 c5 18 14 25 31
25 22 0 25 -5 28 -38 4 -42 -17 -59 -49 -38 -12 7 -19 7 -19 1 0 -5 -7 -10
-15 -10 -8 0 -15 5 -15 10 0 13 -27 13 -32 -1 -2 -6 -18 -9 -37 -7 l-33 3 21
27 c24 30 28 46 6 28 -8 -7 -16 -9 -16 -4 -1 5 -4 -4 -8 -21 -8 -39 -49 -49
-58 -14 l-6 23 -9 -23 c-11 -30 -54 -26 -51 4 2 18 1 18 -9 -2 -12 -24 -58
-33 -58 -11 0 9 -3 9 -12 0 -18 -18 -58 -15 -58 3 0 9 6 15 14 13 8 -2 15 2
15 7 0 6 -7 9 -15 7 -9 -2 -14 6 -14 23 0 21 5 25 30 25 17 0 30 -4 30 -10z"/>
<path d="M682 10665 c0 -16 2 -22 5 -12 2 9 2 23 0 30 -3 6 -5 -1 -5 -18z"/>
<path d="M740 10680 c0 -5 5 -10 10 -10 6 0 10 5 10 10 0 6 -4 10 -10 10 -5 0
-10 -4 -10 -10z"/>
<path d="M810 10665 c0 -15 4 -24 10 -20 6 3 10 12 10 20 0 8 -4 17 -10 20 -6
4 -10 -5 -10 -20z"/>
<path d="M1010 10665 c0 -15 4 -24 10 -20 6 3 10 12 10 20 0 8 -4 17 -10 20
-6 4 -10 -5 -10 -20z"/>
<path d="M6946 10708 c-9 -35 -7 -40 13 -33 22 7 44 -16 35 -39 -7 -19 -25
-21 -42 -4 -9 9 -12 9 -12 1 0 -18 39 -26 56 -12 21 17 13 52 -13 64 -31 13
-29 33 5 38 26 4 26 4 -4 6 -25 1 -33 -4 -38 -21z"/>
<path d="M7600 10710 c-6 -11 -7 -20 -1 -20 5 0 11 7 15 15 7 20 25 19 33 -1
4 -10 -6 -26 -26 -44 -42 -39 -39 -50 12 -48 36 1 38 2 10 5 -18 2 -33 7 -33
10 0 3 14 18 31 34 25 24 28 31 19 49 -14 26 -46 26 -60 0z"/>
<path d="M7689 10703 c-5 -14 -7 -39 -3 -55 12 -59 64 -42 64 21 0 61 -42 84
-61 34z m46 -34 c0 -32 -4 -44 -15 -44 -16 0 -26 54 -16 82 12 30 31 6 31 -38z"/>
<path d="M7780 10710 c-6 -11 -7 -20 -1 -20 5 0 11 7 15 15 7 20 25 19 33 -1
4 -10 -6 -26 -26 -44 -42 -39 -39 -50 12 -48 36 1 38 2 10 5 -18 2 -33 7 -33
10 0 3 14 18 31 34 25 24 28 31 19 49 -14 26 -46 26 -60 0z"/>
<path d="M7884 10705 c-11 -8 -14 -15 -6 -15 7 0 12 -15 12 -40 0 -22 5 -40
10 -40 6 0 10 25 10 55 0 30 -1 55 -3 55 -2 0 -12 -7 -23 -15z"/>
<path d="M4930 10666 c0 -25 5 -46 10 -46 6 0 10 7 10 15 0 8 7 15 15 15 8 0
15 -7 15 -15 0 -8 4 -15 9 -15 5 0 9 19 8 43 -2 40 -4 42 -34 45 -33 3 -33 3
-33 -42z m50 14 c0 -5 -7 -10 -15 -10 -8 0 -15 5 -15 10 0 6 7 10 15 10 8 0
15 -4 15 -10z"/>
<path d="M5190 10700 c0 -5 -6 -10 -14 -10 -21 0 -38 -27 -31 -50 4 -14 15
-20 36 -20 26 0 29 3 30 33 l1 32 12 -35 c9 -23 10 -39 3 -47 -7 -9 -5 -13 5
-13 8 0 21 21 30 50 16 51 10 69 -10 28 -7 -15 -11 -18 -11 -8 -1 9 -10 23
-21 33 -23 20 -30 21 -30 7z m-2 -48 c2 -7 -3 -12 -12 -12 -9 0 -16 7 -16 16
0 17 22 14 28 -4z"/>
<path d="M7068 10640 c-2 -37 1 -59 7 -57 13 5 19 117 6 117 -5 0 -11 -27 -13
-60z"/>
<path d="M7117 10694 c-14 -14 -7 -26 8 -14 8 6 19 9 25 5 17 -11 11 -23 -12
-27 -15 -2 -23 -10 -23 -23 0 -16 7 -20 30 -20 30 -1 31 0 25 40 -4 30 -10 41
-25 43 -12 2 -24 0 -28 -4z m41 -56 c-7 -19 -38 -22 -38 -4 0 10 9 16 21 16
12 0 19 -5 17 -12z"/>
<path d="M7201 10651 l2 -46 6 40 c4 26 12 41 23 43 13 3 18 -6 21 -40 l4 -43
-1 45 c-1 42 -3 45 -28 46 -27 1 -28 -1 -27 -45z"/>
<path d="M7294 10658 c1 -40 3 -43 29 -44 26 -1 27 1 26 45 l-2 46 -6 -40 c-9
-57 -38 -61 -44 -6 l-4 41 1 -42z"/>
<path d="M7387 10694 c-14 -14 -7 -26 8 -14 11 9 19 10 26 3 8 -8 2 -15 -18
-25 -40 -19 -37 -43 8 -44 l35 -2 -5 42 c-5 31 -11 42 -26 44 -12 2 -24 0 -28
-4z m41 -56 c-7 -19 -38 -22 -38 -4 0 10 9 16 21 16 12 0 19 -5 17 -12z"/>
<path d="M7460 10653 c0 -24 5 -43 10 -43 6 0 10 15 10 33 0 18 4 37 10 43 6
6 3 10 -10 10 -17 0 -20 -7 -20 -43z"/>
<path d="M7523 10655 c0 -27 2 -38 4 -22 2 15 2 37 0 50 -2 12 -4 0 -4 -28z"/>
<path d="M5014 10676 c-10 -26 1 -51 24 -54 12 -2 22 2 22 8 0 7 -7 10 -15 6
-8 -3 -15 -1 -15 4 0 6 9 10 20 10 23 0 26 10 8 28 -16 16 -37 15 -44 -2z"/>
<path d="M5086 10681 c-4 -5 2 -12 11 -14 17 -4 17 -5 1 -6 -11 -1 -18 -9 -18
-21 0 -15 7 -20 29 -20 27 0 28 2 22 32 -7 32 -33 49 -45 29z"/>
<path d="M6946 10518 c-9 -35 -7 -40 13 -33 22 7 44 -16 35 -39 -7 -19 -25
-21 -42 -4 -9 9 -12 9 -12 1 0 -18 39 -26 56 -12 21 17 13 52 -13 64 -31 13
-29 33 5 38 26 4 26 4 -4 6 -25 1 -33 -4 -38 -21z"/>
<path d="M7210 10520 c-6 -11 -7 -20 -1 -20 5 0 11 7 15 15 7 20 25 19 33 -1
4 -10 -6 -26 -26 -44 -42 -39 -39 -50 12 -48 36 1 38 2 10 5 -18 2 -33 7 -33
10 0 3 14 18 31 34 25 24 28 31 19 49 -14 26 -46 26 -60 0z"/>
<path d="M7299 10513 c-5 -14 -7 -39 -3 -55 12 -59 64 -42 64 21 0 61 -42 84
-61 34z m46 -34 c0 -32 -4 -44 -15 -44 -16 0 -26 54 -16 82 12 30 31 6 31 -38z"/>
<path d="M7392 10528 c-20 -20 -14 -33 7 -14 21 19 41 14 41 -9 0 -7 -13 -23
-30 -35 -42 -30 -39 -50 8 -49 30 2 32 3 10 6 -35 5 -35 18 -2 39 18 12 24 24
22 43 -3 29 -35 40 -56 19z"/>
<path d="M7094 10515 c-11 -8 -14 -15 -6 -15 7 0 12 -15 12 -40 0 -22 5 -40
10 -40 6 0 10 25 10 55 0 30 -1 55 -3 55 -2 0 -12 -7 -23 -15z"/>
<path d="M7494 10515 c-11 -8 -14 -15 -6 -15 7 0 12 -15 12 -40 0 -22 5 -40
10 -40 6 0 10 25 10 55 0 30 -1 55 -3 55 -2 0 -12 -7 -23 -15z"/>
<path d="M7026 10454 c-4 -14 -5 -28 -3 -31 3 -2 8 8 11 23 4 14 5 28 3 31 -3
2 -8 -8 -11 -23z"/>
<path d="M496 9904 c-11 -10 -16 -34 -16 -74 0 -94 -12 -90 305 -90 317 0 305
-4 305 90 0 94 12 90 -305 90 -235 0 -276 -2 -289 -16z m74 -59 c0 -33 -4 -45
-15 -45 -10 0 -15 10 -15 30 0 17 -5 30 -12 30 -12 0 21 29 35 30 4 0 7 -20 7
-45z m80 35 c0 -5 -5 -10 -10 -10 -6 0 -6 -7 1 -19 7 -10 9 -26 6 -35 -8 -21
-57 -22 -57 -1 0 9 6 15 14 13 8 -2 15 2 15 7 0 6 -7 9 -15 7 -9 -2 -14 6 -14
23 0 21 5 25 30 25 17 0 30 -4 30 -10z m50 -35 c0 -25 -4 -45 -10 -45 -5 0
-10 14 -10 30 0 17 -5 30 -11 30 -8 0 -8 5 1 15 21 26 30 17 30 -30z m79 23
c12 -33 -2 -63 -30 -63 -26 0 -35 21 -25 61 8 31 44 32 55 2z m66 -7 c0 -15 8
-27 23 -32 16 -6 22 -5 22 6 0 9 -6 12 -15 9 -11 -5 -15 1 -15 20 0 21 5 26
26 26 19 0 25 -4 21 -15 -4 -8 -2 -17 4 -21 6 -3 13 3 16 15 3 14 13 21 29 21
24 0 35 -19 12 -21 -10 0 -10 -2 0 -6 18 -7 15 -53 -4 -60 -9 -3 -25 -1 -35 6
-11 6 -19 7 -19 2 0 -5 -27 -9 -60 -9 -46 0 -60 3 -60 15 0 10 6 12 22 7 20
-6 21 -5 10 9 -8 9 -11 21 -7 26 3 7 0 8 -9 5 -11 -4 -16 0 -16 11 0 12 7 16
28 13 21 -2 27 -8 27 -27z m205 19 c0 -5 -5 -10 -10 -10 -6 0 -6 -7 1 -19 7
-10 9 -26 6 -35 -8 -21 -57 -22 -57 -1 0 9 6 15 14 13 8 -2 15 2 15 7 0 6 -7
9 -15 7 -9 -2 -14 6 -14 23 0 21 5 25 30 25 17 0 30 -4 30 -10z"/>
<path d="M743 9854 c-3 -8 -1 -20 6 -27 8 -8 11 -4 11 16 0 30 -7 35 -17 11z"/>
<path d="M936 9840 c-19 -6 -19 -7 -1 -13 20 -8 29 -4 24 11 -2 5 -13 6 -23 2z"/>
<path d="M6952 9898 c-17 -17 -15 -83 4 -99 21 -17 49 0 49 32 0 20 -5 24 -27
24 -31 -1 -36 16 -11 36 13 11 17 11 20 2 3 -7 9 -13 15 -13 6 0 6 6 -2 15
-15 18 -32 19 -48 3z m46 -71 c4 -20 -25 -34 -40 -19 -15 15 -1 44 19 40 10
-2 19 -11 21 -21z"/>
<path d="M7600 9890 c-6 -11 -7 -20 -1 -20 5 0 11 7 15 15 7 20 25 19 33 -1 4
-10 -6 -26 -26 -44 -42 -39 -39 -50 12 -48 36 1 38 2 10 5 -18 2 -33 7 -33 10
0 3 14 18 31 34 25 24 28 31 19 49 -14 26 -46 26 -60 0z"/>
<path d="M7689 9883 c-5 -14 -7 -39 -3 -55 12 -59 64 -42 64 21 0 61 -42 84
-61 34z m46 -34 c0 -32 -4 -44 -15 -44 -16 0 -26 54 -16 82 12 30 31 6 31 -38z"/>
<path d="M7780 9890 c-6 -11 -7 -20 -1 -20 5 0 11 7 15 15 7 20 25 19 33 -1 4
-10 -6 -26 -26 -44 -42 -39 -39 -50 12 -48 36 1 38 2 10 5 -18 2 -33 7 -33 10
0 3 14 18 31 34 25 24 28 31 19 49 -14 26 -46 26 -60 0z"/>
<path d="M7884 9885 c-11 -8 -14 -15 -6 -15 7 0 12 -15 12 -40 0 -22 5 -40 10
-40 6 0 10 25 10 55 0 30 -1 55 -3 55 -2 0 -12 -7 -23 -15z"/>
<path d="M4930 9845 c0 -25 5 -45 10 -45 6 0 10 7 10 15 0 8 6 15 14 15 20 0
37 25 30 44 -4 10 -18 16 -35 16 -28 0 -29 -2 -29 -45z m45 15 c-3 -5 -10 -10
-16 -10 -5 0 -9 5 -9 10 0 6 7 10 16 10 8 0 12 -4 9 -10z"/>
<path d="M5071 9845 c-1 -26 2 -45 9 -45 5 0 10 20 10 45 0 25 -4 45 -8 45 -5
0 -9 -20 -11 -45z"/>
<path d="M5150 9880 c0 -5 -6 -10 -14 -10 -21 0 -38 -27 -31 -50 4 -14 15 -20
36 -20 28 0 29 2 29 45 0 25 -4 45 -10 45 -5 0 -10 -4 -10 -10z m-8 -45 c0 -5
-5 -11 -11 -13 -6 -2 -11 4 -11 13 0 9 5 15 11 13 6 -2 11 -8 11 -13z"/>
<path d="M7068 9820 c-2 -37 1 -59 7 -57 13 5 19 117 6 117 -5 0 -11 -27 -13
-60z"/>
<path d="M7117 9874 c-14 -14 -7 -26 8 -14 8 6 19 9 25 5 17 -11 11 -23 -12
-27 -15 -2 -23 -10 -23 -23 0 -16 7 -20 30 -20 30 -1 31 0 25 40 -4 30 -10 41
-25 43 -12 2 -24 0 -28 -4z m41 -56 c-7 -19 -38 -22 -38 -4 0 10 9 16 21 16
12 0 19 -5 17 -12z"/>
<path d="M7201 9831 l2 -46 6 40 c4 26 12 41 23 43 13 3 18 -6 21 -40 l4 -43
-1 45 c-1 42 -3 45 -28 46 -27 1 -28 -1 -27 -45z"/>
<path d="M7294 9838 c1 -40 3 -43 29 -44 26 -1 27 1 26 45 l-2 46 -6 -40 c-9
-57 -38 -61 -44 -6 l-4 41 1 -42z"/>
<path d="M7387 9874 c-14 -14 -7 -26 8 -14 11 9 19 10 26 3 8 -8 2 -15 -18
-25 -40 -19 -37 -43 8 -44 l35 -2 -5 42 c-5 31 -11 42 -26 44 -12 2 -24 0 -28
-4z m41 -56 c-7 -19 -38 -22 -38 -4 0 10 9 16 21 16 12 0 19 -5 17 -12z"/>
<path d="M7460 9833 c0 -24 5 -43 10 -43 6 0 10 15 10 33 0 18 4 37 10 43 6 6
3 10 -10 10 -17 0 -20 -7 -20 -43z"/>
<path d="M7523 9835 c0 -27 2 -38 4 -22 2 15 2 37 0 50 -2 12 -4 0 -4 -28z"/>
<path d="M5010 9861 c0 -6 8 -11 18 -12 12 0 11 -3 -6 -10 -30 -12 -23 -33 12
-37 26 -3 27 -1 24 30 -2 25 -8 34 -25 36 -13 2 -23 -1 -23 -7z"/>
<path d="M6952 9708 c-17 -17 -15 -83 4 -99 21 -17 49 0 49 32 0 20 -5 24 -27
24 -31 -1 -36 16 -11 36 13 11 17 11 20 2 3 -7 9 -13 15 -13 6 0 6 6 -2 15
-15 18 -32 19 -48 3z m46 -71 c4 -20 -25 -34 -40 -19 -15 15 -1 44 19 40 10
-2 19 -11 21 -21z"/>
<path d="M7210 9700 c-6 -11 -7 -20 -1 -20 5 0 11 7 15 15 7 20 25 19 33 -1 4
-10 -6 -26 -26 -44 -42 -39 -39 -50 12 -48 36 1 38 2 10 5 -18 2 -33 7 -33 10
0 3 14 18 31 34 25 24 28 31 19 49 -14 26 -46 26 -60 0z"/>
<path d="M7299 9693 c-5 -14 -7 -39 -3 -55 12 -59 64 -42 64 21 0 61 -42 84
-61 34z m46 -34 c0 -32 -4 -44 -15 -44 -16 0 -26 54 -16 82 12 30 31 6 31 -38z"/>
<path d="M7392 9708 c-20 -20 -14 -33 7 -14 21 19 41 14 41 -9 0 -7 -13 -23
-30 -35 -42 -30 -39 -50 8 -49 30 2 32 3 10 6 -35 5 -35 18 -2 39 18 12 24 24
22 43 -3 29 -35 40 -56 19z"/>
<path d="M7094 9695 c-11 -8 -14 -15 -6 -15 7 0 12 -15 12 -40 0 -22 5 -40 10
-40 6 0 10 25 10 55 0 30 -1 55 -3 55 -2 0 -12 -7 -23 -15z"/>
<path d="M7494 9695 c-11 -8 -14 -15 -6 -15 7 0 12 -15 12 -40 0 -22 5 -40 10
-40 6 0 10 25 10 55 0 30 -1 55 -3 55 -2 0 -12 -7 -23 -15z"/>
<path d="M7026 9634 c-4 -14 -5 -28 -3 -31 3 -2 8 8 11 23 4 14 5 28 3 31 -3
2 -8 -8 -11 -23z"/>
<path d="M496 9084 c-11 -10 -16 -34 -16 -74 0 -94 -12 -90 305 -90 317 0 305
-4 305 90 0 94 12 90 -305 90 -235 0 -276 -2 -289 -16z m74 -59 c0 -33 -4 -45
-15 -45 -10 0 -15 10 -15 30 0 17 -5 30 -12 30 -12 0 21 29 35 30 4 0 7 -20 7
-45z m80 35 c0 -5 -5 -10 -10 -10 -6 0 -6 -7 1 -19 7 -10 9 -26 6 -35 -8 -21
-57 -22 -57 -1 0 9 6 15 14 13 8 -2 15 2 15 7 0 6 -7 9 -15 7 -9 -2 -14 6 -14
23 0 21 5 25 30 25 17 0 30 -4 30 -10z m50 -35 c0 -25 -4 -45 -10 -45 -5 0
-10 14 -10 30 0 17 -5 30 -11 30 -8 0 -8 5 1 15 21 26 30 17 30 -30z m79 23
c12 -33 -2 -63 -30 -63 -26 0 -35 21 -25 61 8 31 44 32 55 2z m69 10 c9 -9 12
-9 12 0 0 15 36 16 46 1 4 -8 9 -8 17 0 19 19 48 13 55 -11 l5 -22 8 22 c5 13
17 22 28 22 28 0 37 -20 9 -21 l-23 0 23 -10 c31 -12 27 -53 -6 -57 -17 -3
-25 2 -29 19 l-6 23 -9 -23 c-11 -30 -55 -26 -50 4 3 18 2 18 -13 -2 -22 -32
-55 -30 -55 1 0 14 -4 27 -9 31 -6 3 -9 -7 -8 -22 2 -24 -2 -28 -25 -31 -21
-2 -28 1 -28 13 0 12 5 15 22 9 20 -6 21 -5 10 9 -8 9 -11 21 -7 26 3 7 0 8
-9 5 -11 -4 -16 0 -16 10 0 19 40 22 58 4z"/>
<path d="M743 9034 c-3 -8 -1 -20 6 -27 8 -8 11 -4 11 16 0 30 -7 35 -17 11z"/>
<path d="M940 9040 c0 -5 5 -10 10 -10 6 0 10 5 10 10 0 6 -4 10 -10 10 -5 0
-10 -4 -10 -10z"/>
<path d="M1010 9010 c0 -5 5 -10 10 -10 6 0 10 5 10 10 0 6 -4 10 -10 10 -5 0
-10 -4 -10 -10z"/>
<path d="M6952 9078 c-17 -17 -15 -83 4 -99 21 -17 49 0 49 32 0 20 -5 24 -27
24 -31 -1 -36 16 -11 36 13 11 17 11 20 2 3 -7 9 -13 15 -13 6 0 6 6 -2 15
-15 18 -32 19 -48 3z m46 -71 c4 -20 -25 -34 -40 -19 -15 15 -1 44 19 40 10
-2 19 -11 21 -21z"/>
<path d="M7600 9070 c-6 -11 -7 -20 -1 -20 5 0 11 7 15 15 7 20 25 19 33 -1 4
-10 -6 -26 -26 -44 -42 -39 -39 -50 12 -48 36 1 38 2 10 5 -18 2 -33 7 -33 10
0 3 14 18 31 34 25 24 28 31 19 49 -14 26 -46 26 -60 0z"/>
<path d="M7689 9063 c-5 -14 -7 -39 -3 -55 12 -59 64 -42 64 21 0 61 -42 84
-61 34z m46 -34 c0 -32 -4 -44 -15 -44 -16 0 -26 54 -16 82 12 30 31 6 31 -38z"/>
<path d="M7780 9070 c-6 -11 -7 -20 -1 -20 5 0 11 7 15 15 7 20 25 19 33 -1 4
-10 -6 -26 -26 -44 -42 -39 -39 -50 12 -48 36 1 38 2 10 5 -18 2 -33 7 -33 10
0 3 14 18 31 34 25 24 28 31 19 49 -14 26 -46 26 -60 0z"/>
<path d="M7884 9065 c-11 -8 -14 -15 -6 -15 7 0 12 -15 12 -40 0 -22 5 -40 10
-40 6 0 10 25 10 55 0 30 -1 55 -3 55 -2 0 -12 -7 -23 -15z"/>
<path d="M4930 9025 c0 -25 5 -45 10 -45 6 0 10 7 10 15 0 8 6 15 14 15 20 0
37 25 30 44 -4 10 -18 16 -35 16 -28 0 -29 -2 -29 -45z m45 15 c-3 -5 -10 -10
-16 -10 -5 0 -9 5 -9 10 0 6 7 10 16 10 8 0 12 -4 9 -10z"/>
<path d="M5071 9025 c-1 -26 2 -45 9 -45 5 0 10 20 10 45 0 25 -4 45 -8 45 -5
0 -9 -20 -11 -45z"/>
<path d="M5150 9060 c0 -5 -6 -10 -14 -10 -21 0 -38 -27 -31 -50 4 -14 15 -20
36 -20 28 0 29 2 29 45 0 25 -4 45 -10 45 -5 0 -10 -4 -10 -10z m-8 -45 c0 -5
-5 -11 -11 -13 -6 -2 -11 4 -11 13 0 9 5 15 11 13 6 -2 11 -8 11 -13z"/>
<path d="M7068 9000 c-2 -37 1 -59 7 -57 13 5 19 117 6 117 -5 0 -11 -27 -13
-60z"/>
<path d="M7117 9054 c-14 -14 -7 -26 8 -14 8 6 19 9 25 5 17 -11 11 -23 -12
-27 -15 -2 -23 -10 -23 -23 0 -16 7 -20 30 -20 30 -1 31 0 25 40 -4 30 -10 41
-25 43 -12 2 -24 0 -28 -4z m41 -56 c-7 -19 -38 -22 -38 -4 0 10 9 16 21 16
12 0 19 -5 17 -12z"/>
<path d="M7201 9011 l2 -46 6 40 c4 26 12 41 23 43 13 3 18 -6 21 -40 l4 -43
-1 45 c-1 42 -3 45 -28 46 -27 1 -28 -1 -27 -45z"/>
<path d="M7294 9018 c1 -40 3 -43 29 -44 26 -1 27 1 26 45 l-2 46 -6 -40 c-9
-57 -38 -61 -44 -6 l-4 41 1 -42z"/>
<path d="M7387 9054 c-14 -14 -7 -26 8 -14 11 9 19 10 26 3 8 -8 2 -15 -18
-25 -40 -19 -37 -43 8 -44 l35 -2 -5 42 c-5 31 -11 42 -26 44 -12 2 -24 0 -28
-4z m41 -56 c-7 -19 -38 -22 -38 -4 0 10 9 16 21 16 12 0 19 -5 17 -12z"/>
<path d="M7460 9013 c0 -24 5 -43 10 -43 6 0 10 15 10 33 0 18 4 37 10 43 6 6
3 10 -10 10 -17 0 -20 -7 -20 -43z"/>
<path d="M7523 9015 c0 -27 2 -38 4 -22 2 15 2 37 0 50 -2 12 -4 0 -4 -28z"/>
<path d="M5010 9041 c0 -6 8 -11 18 -12 12 0 11 -3 -6 -10 -30 -12 -23 -33 12
-37 26 -3 27 -1 24 30 -2 25 -8 34 -25 36 -13 2 -23 -1 -23 -7z"/>
<path d="M6952 8888 c-17 -17 -15 -83 4 -99 21 -17 49 0 49 32 0 20 -5 24 -27
24 -31 -1 -36 16 -11 36 13 11 17 11 20 2 3 -7 9 -13 15 -13 6 0 6 6 -2 15
-15 18 -32 19 -48 3z m46 -71 c4 -20 -25 -34 -40 -19 -15 15 -1 44 19 40 10
-2 19 -11 21 -21z"/>
<path d="M7210 8880 c-6 -11 -7 -20 -1 -20 5 0 11 7 15 15 7 20 25 19 33 -1 4
-10 -6 -26 -26 -44 -42 -39 -39 -50 12 -48 36 1 38 2 10 5 -18 2 -33 7 -33 10
0 3 14 18 31 34 25 24 28 31 19 49 -14 26 -46 26 -60 0z"/>
<path d="M7299 8873 c-5 -14 -7 -39 -3 -55 12 -59 64 -42 64 21 0 61 -42 84
-61 34z m46 -34 c0 -32 -4 -44 -15 -44 -16 0 -26 54 -16 82 12 30 31 6 31 -38z"/>
<path d="M7392 8888 c-20 -20 -14 -33 7 -14 21 19 41 14 41 -9 0 -7 -13 -23
-30 -35 -42 -30 -39 -50 8 -49 30 2 32 3 10 6 -35 5 -35 18 -2 39 18 12 24 24
22 43 -3 29 -35 40 -56 19z"/>
<path d="M7094 8875 c-11 -8 -14 -15 -6 -15 7 0 12 -15 12 -40 0 -22 5 -40 10
-40 6 0 10 25 10 55 0 30 -1 55 -3 55 -2 0 -12 -7 -23 -15z"/>
<path d="M7494 8875 c-11 -8 -14 -15 -6 -15 7 0 12 -15 12 -40 0 -22 5 -40 10
-40 6 0 10 25 10 55 0 30 -1 55 -3 55 -2 0 -12 -7 -23 -15z"/>
<path d="M7026 8814 c-4 -14 -5 -28 -3 -31 3 -2 8 8 11 23 4 14 5 28 3 31 -3
2 -8 -8 -11 -23z"/>
<path d="M496 8264 c-11 -10 -16 -34 -16 -74 0 -94 -12 -90 305 -90 317 0 305
-4 305 90 0 94 12 90 -305 90 -235 0 -276 -2 -289 -16z m74 -59 c0 -33 -4 -45
-15 -45 -10 0 -15 10 -15 30 0 17 -5 30 -12 30 -12 0 21 29 35 30 4 0 7 -20 7
-45z m80 35 c0 -5 -5 -10 -10 -10 -6 0 -6 -7 1 -19 7 -10 9 -26 6 -35 -8 -21
-57 -22 -57 -1 0 9 6 15 14 13 8 -2 15 2 15 7 0 6 -7 9 -15 7 -9 -2 -14 6 -14
23 0 21 5 25 30 25 17 0 30 -4 30 -10z m50 -35 c0 -25 -4 -45 -10 -45 -5 0
-10 14 -10 30 0 17 -5 30 -11 30 -8 0 -8 5 1 15 21 26 30 17 30 -30z m80 23
l9 -23 0 23 c1 18 7 22 31 22 17 0 30 -4 30 -10 0 -5 -5 -10 -11 -10 -5 0 -7
-5 -3 -12 5 -8 11 -5 17 10 11 24 52 30 60 10 4 -10 8 -10 14 -2 4 6 34 12 67
13 52 1 57 -1 51 -17 -4 -9 -12 -29 -17 -44 -5 -16 -14 -28 -19 -28 -11 0 -11
12 0 43 8 21 6 26 -9 30 -15 4 -18 -1 -18 -23 1 -15 -2 -32 -6 -39 -9 -15 -39
-14 -54 1 -9 9 -12 9 -12 0 0 -7 -11 -12 -25 -12 -14 0 -25 5 -25 12 0 9 -3 9
-12 0 -18 -18 -58 -15 -58 3 0 9 6 15 13 13 6 -2 13 0 15 5 1 4 0 7 -3 7 -3 0
-11 0 -19 0 -7 0 -16 -9 -19 -21 -4 -15 -12 -20 -29 -17 -25 3 -33 26 -24 64
8 31 43 32 56 2z"/>
<path d="M743 8214 c-3 -8 -1 -20 6 -27 8 -8 11 -4 11 16 0 30 -7 35 -17 11z"/>
<path d="M882 8205 c0 -16 2 -22 5 -12 2 9 2 23 0 30 -3 6 -5 -1 -5 -18z"/>
<path d="M943 8214 c-3 -8 -1 -20 6 -27 8 -8 11 -4 11 16 0 30 -7 35 -17 11z"/>
<path d="M6952 8258 c-17 -17 -15 -83 4 -99 21 -17 49 0 49 32 0 20 -5 24 -27
24 -31 -1 -36 16 -11 36 13 11 17 11 20 2 3 -7 9 -13 15 -13 6 0 6 6 -2 15
-15 18 -32 19 -48 3z m46 -71 c4 -20 -25 -34 -40 -19 -15 15 -1 44 19 40 10
-2 19 -11 21 -21z"/>
<path d="M7600 8250 c-6 -11 -7 -20 -1 -20 5 0 11 7 15 15 7 20 25 19 33 -1 4
-10 -6 -26 -26 -44 -42 -39 -39 -50 12 -48 36 1 38 2 10 5 -18 2 -33 7 -33 10
0 3 14 18 31 34 25 24 28 31 19 49 -14 26 -46 26 -60 0z"/>
<path d="M7689 8243 c-5 -14 -7 -39 -3 -55 12 -59 64 -42 64 21 0 61 -42 84
-61 34z m46 -34 c0 -32 -4 -44 -15 -44 -16 0 -26 54 -16 82 12 30 31 6 31 -38z"/>
<path d="M7780 8250 c-6 -11 -7 -20 -1 -20 5 0 11 7 15 15 7 20 25 19 33 -1 4
-10 -6 -26 -26 -44 -42 -39 -39 -50 12 -48 36 1 38 2 10 5 -18 2 -33 7 -33 10
0 3 14 18 31 34 25 24 28 31 19 49 -14 26 -46 26 -60 0z"/>
<path d="M7884 8245 c-11 -8 -14 -15 -6 -15 7 0 12 -15 12 -40 0 -22 5 -40 10
-40 6 0 10 25 10 55 0 30 -1 55 -3 55 -2 0 -12 -7 -23 -15z"/>
<path d="M4930 8206 c0 -25 5 -46 10 -46 6 0 10 7 10 15 0 8 7 15 15 15 8 0
15 -7 15 -15 0 -8 4 -15 9 -15 5 0 9 19 8 43 -2 40 -4 42 -34 45 -33 3 -33 3
-33 -42z m50 14 c0 -5 -7 -10 -15 -10 -8 0 -15 5 -15 10 0 6 7 10 15 10 8 0
15 -4 15 -10z"/>
<path d="M5190 8240 c0 -5 -6 -10 -14 -10 -21 0 -38 -27 -31 -50 4 -14 15 -20
36 -20 26 0 29 3 30 33 l1 32 12 -35 c9 -23 10 -39 3 -47 -7 -9 -5 -13 5 -13
8 0 21 21 30 50 16 51 10 69 -10 28 -7 -15 -11 -18 -11 -8 -1 9 -10 23 -21 33
-23 20 -30 21 -30 7z m-2 -48 c2 -7 -3 -12 -12 -12 -9 0 -16 7 -16 16 0 17 22
14 28 -4z"/>
<path d="M7068 8180 c-2 -37 1 -59 7 -57 13 5 19 117 6 117 -5 0 -11 -27 -13
-60z"/>
<path d="M7117 8234 c-14 -14 -7 -26 8 -14 8 6 19 9 25 5 17 -11 11 -23 -12
-27 -15 -2 -23 -10 -23 -23 0 -16 7 -20 30 -20 30 -1 31 0 25 40 -4 30 -10 41
-25 43 -12 2 -24 0 -28 -4z m41 -56 c-7 -19 -38 -22 -38 -4 0 10 9 16 21 16
12 0 19 -5 17 -12z"/>
<path d="M7201 8191 l2 -46 6 40 c4 26 12 41 23 43 13 3 18 -6 21 -40 l4 -43
-1 45 c-1 42 -3 45 -28 46 -27 1 -28 -1 -27 -45z"/>
<path d="M7294 8198 c1 -40 3 -43 29 -44 26 -1 27 1 26 45 l-2 46 -6 -40 c-9
-57 -38 -61 -44 -6 l-4 41 1 -42z"/>
<path d="M7387 8234 c-14 -14 -7 -26 8 -14 11 9 19 10 26 3 8 -8 2 -15 -18
-25 -40 -19 -37 -43 8 -44 l35 -2 -5 42 c-5 31 -11 42 -26 44 -12 2 -24 0 -28
-4z m41 -56 c-7 -19 -38 -22 -38 -4 0 10 9 16 21 16 12 0 19 -5 17 -12z"/>
<path d="M7460 8193 c0 -24 5 -43 10 -43 6 0 10 15 10 33 0 18 4 37 10 43 6 6
3 10 -10 10 -17 0 -20 -7 -20 -43z"/>
<path d="M7523 8195 c0 -27 2 -38 4 -22 2 15 2 37 0 50 -2 12 -4 0 -4 -28z"/>
<path d="M5014 8216 c-10 -26 1 -51 24 -54 12 -2 22 2 22 8 0 7 -7 10 -15 6
-8 -3 -15 -1 -15 4 0 6 9 10 20 10 23 0 26 10 8 28 -16 16 -37 15 -44 -2z"/>
<path d="M5086 8221 c-4 -5 2 -12 11 -14 17 -4 17 -5 1 -6 -11 -1 -18 -9 -18
-21 0 -15 7 -20 29 -20 27 0 28 2 22 32 -7 32 -33 49 -45 29z"/>
<path d="M6952 8068 c-17 -17 -15 -83 4 -99 21 -17 49 0 49 32 0 20 -5 24 -27
24 -31 -1 -36 16 -11 36 13 11 17 11 20 2 3 -7 9 -13 15 -13 6 0 6 6 -2 15
-15 18 -32 19 -48 3z m46 -71 c4 -20 -25 -34 -40 -19 -15 15 -1 44 19 40 10
-2 19 -11 21 -21z"/>
<path d="M7210 8060 c-6 -11 -7 -20 -1 -20 5 0 11 7 15 15 7 20 25 19 33 -1 4
-10 -6 -26 -26 -44 -42 -39 -39 -50 12 -48 36 1 38 2 10 5 -18 2 -33 7 -33 10
0 3 14 18 31 34 25 24 28 31 19 49 -14 26 -46 26 -60 0z"/>
<path d="M7299 8053 c-5 -14 -7 -39 -3 -55 12 -59 64 -42 64 21 0 61 -42 84
-61 34z m46 -34 c0 -32 -4 -44 -15 -44 -16 0 -26 54 -16 82 12 30 31 6 31 -38z"/>
<path d="M7392 8068 c-20 -20 -14 -33 7 -14 21 19 41 14 41 -9 0 -7 -13 -23
-30 -35 -42 -30 -39 -50 8 -49 30 2 32 3 10 6 -35 5 -35 18 -2 39 18 12 24 24
22 43 -3 29 -35 40 -56 19z"/>
<path d="M7094 8055 c-11 -8 -14 -15 -6 -15 7 0 12 -15 12 -40 0 -22 5 -40 10
-40 6 0 10 25 10 55 0 30 -1 55 -3 55 -2 0 -12 -7 -23 -15z"/>
<path d="M7494 8055 c-11 -8 -14 -15 -6 -15 7 0 12 -15 12 -40 0 -22 5 -40 10
-40 6 0 10 25 10 55 0 30 -1 55 -3 55 -2 0 -12 -7 -23 -15z"/>
<path d="M7026 7994 c-4 -14 -5 -28 -3 -31 3 -2 8 8 11 23 4 14 5 28 3 31 -3
2 -8 -8 -11 -23z"/>
<path d="M496 7444 c-11 -10 -16 -34 -16 -74 0 -94 -12 -90 305 -90 317 0 305
-4 305 90 0 94 12 90 -305 90 -235 0 -276 -2 -289 -16z m74 -59 c0 -33 -4 -45
-15 -45 -10 0 -15 10 -15 30 0 17 -5 30 -12 30 -12 0 21 29 35 30 4 0 7 -20 7
-45z m80 35 c0 -5 -5 -10 -10 -10 -6 0 -6 -7 1 -19 7 -10 9 -26 6 -35 -8 -21
-57 -22 -57 -1 0 9 6 15 14 13 8 -2 15 2 15 7 0 6 -7 9 -15 7 -9 -2 -14 6 -14
23 0 21 5 25 30 25 17 0 30 -4 30 -10z m50 -35 c0 -25 -4 -45 -10 -45 -5 0
-10 14 -10 30 0 17 -5 30 -11 30 -8 0 -8 5 1 15 21 26 30 17 30 -30z m79 23
l8 -22 6 23 c8 32 52 26 52 -8 0 -15 8 -27 23 -32 16 -6 22 -5 22 6 0 9 -6 12
-15 9 -11 -5 -15 1 -15 20 0 21 5 26 26 26 18 0 25 -4 21 -14 -3 -7 -1 -18 5
-24 5 -5 7 -19 4 -30 -6 -17 -15 -20 -66 -20 -33 0 -60 4 -60 9 0 5 -8 4 -19
-2 -38 -24 -65 14 -45 65 9 23 43 19 53 -6z m267 0 c11 -35 -4 -68 -31 -68
-22 0 -25 4 -25 38 -1 35 -2 36 -15 18 -8 -11 -15 -28 -15 -38 0 -10 -7 -18
-16 -18 -11 0 -14 6 -8 23 3 12 11 28 16 35 8 9 5 12 -11 12 -11 0 -21 4 -21
10 0 5 27 9 60 9 50 -1 60 -4 66 -21z"/>
<path d="M743 7394 c-3 -8 -1 -20 6 -27 8 -8 11 -4 11 16 0 30 -7 35 -17 11z"/>
<path d="M810 7370 c0 -5 5 -10 11 -10 5 0 7 5 4 10 -3 6 -8 10 -11 10 -2 0
-4 -4 -4 -10z"/>
<path d="M6963 7443 c32 -5 32 -9 3 -75 -9 -22 -12 -38 -6 -38 5 0 10 7 10 15
0 9 9 33 20 55 11 22 20 42 20 45 0 3 -17 4 -37 4 -32 -2 -34 -3 -10 -6z"/>
<path d="M7600 7430 c-6 -11 -7 -20 -1 -20 5 0 11 7 15 15 7 20 25 19 33 -1 4
-10 -6 -26 -26 -44 -42 -39 -39 -50 12 -48 36 1 38 2 10 5 -18 2 -33 7 -33 10
0 3 14 18 31 34 25 24 28 31 19 49 -14 26 -46 26 -60 0z"/>
<path d="M7689 7423 c-5 -14 -7 -39 -3 -55 12 -59 64 -42 64 21 0 61 -42 84
-61 34z m46 -34 c0 -32 -4 -44 -15 -44 -16 0 -26 54 -16 82 12 30 31 6 31 -38z"/>
<path d="M7780 7430 c-6 -11 -7 -20 -1 -20 5 0 11 7 15 15 7 20 25 19 33 -1 4
-10 -6 -26 -26 -44 -42 -39 -39 -50 12 -48 36 1 38 2 10 5 -18 2 -33 7 -33 10
0 3 14 18 31 34 25 24 28 31 19 49 -14 26 -46 26 -60 0z"/>
<path d="M7884 7425 c-11 -8 -14 -15 -6 -15 7 0 12 -15 12 -40 0 -22 5 -40 10
-40 6 0 10 25 10 55 0 30 -1 55 -3 55 -2 0 -12 -7 -23 -15z"/>
<path d="M4930 7385 c0 -25 5 -45 10 -45 6 0 10 7 10 15 0 8 6 15 14 15 20 0
37 25 30 44 -4 10 -18 16 -35 16 -28 0 -29 -2 -29 -45z m45 15 c-3 -5 -10 -10
-16 -10 -5 0 -9 5 -9 10 0 6 7 10 16 10 8 0 12 -4 9 -10z"/>
<path d="M5071 7385 c-1 -26 2 -45 9 -45 5 0 10 20 10 45 0 25 -4 45 -8 45 -5
0 -9 -20 -11 -45z"/>
<path d="M5150 7420 c0 -5 -6 -10 -14 -10 -21 0 -38 -27 -31 -50 4 -14 15 -20
36 -20 28 0 29 2 29 45 0 25 -4 45 -10 45 -5 0 -10 -4 -10 -10z m-8 -45 c0 -5
-5 -11 -11 -13 -6 -2 -11 4 -11 13 0 9 5 15 11 13 6 -2 11 -8 11 -13z"/>
<path d="M7068 7360 c-2 -37 1 -59 7 -57 13 5 19 117 6 117 -5 0 -11 -27 -13
-60z"/>
<path d="M7117 7414 c-14 -14 -7 -26 8 -14 8 6 19 9 25 5 17 -11 11 -23 -12
-27 -15 -2 -23 -10 -23 -23 0 -16 7 -20 30 -20 30 -1 31 0 25 40 -4 30 -10 41
-25 43 -12 2 -24 0 -28 -4z m41 -56 c-7 -19 -38 -22 -38 -4 0 10 9 16 21 16
12 0 19 -5 17 -12z"/>
<path d="M7201 7371 l2 -46 6 40 c4 26 12 41 23 43 13 3 18 -6 21 -40 l4 -43
-1 45 c-1 42 -3 45 -28 46 -27 1 -28 -1 -27 -45z"/>
<path d="M7294 7378 c1 -40 3 -43 29 -44 26 -1 27 1 26 45 l-2 46 -6 -40 c-9
-57 -38 -61 -44 -6 l-4 41 1 -42z"/>
<path d="M7387 7414 c-14 -14 -7 -26 8 -14 11 9 19 10 26 3 8 -8 2 -15 -18
-25 -40 -19 -37 -43 8 -44 l35 -2 -5 42 c-5 31 -11 42 -26 44 -12 2 -24 0 -28
-4z m41 -56 c-7 -19 -38 -22 -38 -4 0 10 9 16 21 16 12 0 19 -5 17 -12z"/>
<path d="M7460 7373 c0 -24 5 -43 10 -43 6 0 10 15 10 33 0 18 4 37 10 43 6 6
3 10 -10 10 -17 0 -20 -7 -20 -43z"/>
<path d="M7523 7375 c0 -27 2 -38 4 -22 2 15 2 37 0 50 -2 12 -4 0 -4 -28z"/>
<path d="M5010 7401 c0 -6 8 -11 18 -12 12 0 11 -3 -6 -10 -30 -12 -23 -33 12
-37 26 -3 27 -1 24 30 -2 25 -8 34 -25 36 -13 2 -23 -1 -23 -7z"/>
<path d="M6963 7253 c32 -5 32 -9 3 -75 -9 -22 -12 -38 -6 -38 5 0 10 7 10 15
0 9 9 33 20 55 11 22 20 42 20 45 0 3 -17 4 -37 4 -32 -2 -34 -3 -10 -6z"/>
<path d="M7210 7240 c-6 -11 -7 -20 -1 -20 5 0 11 7 15 15 7 20 25 19 33 -1 4
-10 -6 -26 -26 -44 -42 -39 -39 -50 12 -48 36 1 38 2 10 5 -18 2 -33 7 -33 10
0 3 14 18 31 34 25 24 28 31 19 49 -14 26 -46 26 -60 0z"/>
<path d="M7299 7233 c-5 -14 -7 -39 -3 -55 12 -59 64 -42 64 21 0 61 -42 84
-61 34z m46 -34 c0 -32 -4 -44 -15 -44 -16 0 -26 54 -16 82 12 30 31 6 31 -38z"/>
<path d="M7392 7248 c-20 -20 -14 -33 7 -14 21 19 41 14 41 -9 0 -7 -13 -23
-30 -35 -42 -30 -39 -50 8 -49 30 2 32 3 10 6 -35 5 -35 18 -2 39 18 12 24 24
22 43 -3 29 -35 40 -56 19z"/>
<path d="M7094 7235 c-11 -8 -14 -15 -6 -15 7 0 12 -15 12 -40 0 -22 5 -40 10
-40 6 0 10 25 10 55 0 30 -1 55 -3 55 -2 0 -12 -7 -23 -15z"/>
<path d="M7494 7235 c-11 -8 -14 -15 -6 -15 7 0 12 -15 12 -40 0 -22 5 -40 10
-40 6 0 10 25 10 55 0 30 -1 55 -3 55 -2 0 -12 -7 -23 -15z"/>
<path d="M7026 7174 c-4 -14 -5 -28 -3 -31 3 -2 8 8 11 23 4 14 5 28 3 31 -3
2 -8 -8 -11 -23z"/>
<path d="M496 6624 c-11 -10 -16 -34 -16 -74 0 -94 -12 -90 305 -90 317 0 305
-4 305 90 0 94 12 90 -305 90 -235 0 -276 -2 -289 -16z m74 -59 c0 -33 -4 -45
-15 -45 -10 0 -15 10 -15 30 0 17 -5 30 -12 30 -12 0 21 29 35 30 4 0 7 -20 7
-45z m80 35 c0 -5 -5 -10 -10 -10 -6 0 -6 -7 1 -19 7 -10 9 -26 6 -35 -8 -21
-57 -22 -57 -1 0 9 6 15 14 13 8 -2 15 2 15 7 0 6 -7 9 -15 7 -9 -2 -14 6 -14
23 0 21 5 25 30 25 17 0 30 -4 30 -10z m50 -35 c0 -25 -4 -45 -10 -45 -5 0
-10 14 -10 30 0 17 -5 30 -11 30 -8 0 -8 5 1 15 21 26 30 17 30 -30z m70 0 c0
-33 -4 -45 -15 -45 -10 0 -15 10 -15 30 0 17 -5 30 -12 30 -12 0 21 29 35 30
4 0 7 -20 7 -45z m70 26 c0 -11 2 -25 5 -33 7 -18 -15 -48 -22 -30 -2 6 -13
12 -24 12 -18 0 -18 1 -2 35 18 38 43 47 43 16z m140 -5 c0 -12 -5 -27 -12
-34 -9 -9 -9 -12 0 -12 7 0 12 -4 12 -10 0 -5 -13 -10 -30 -10 -35 0 -38 10
-10 35 11 10 20 23 20 29 0 6 -4 6 -12 -2 -8 -8 -15 -8 -24 -1 -9 7 -16 1 -25
-25 -13 -37 -29 -48 -29 -20 0 8 5 24 10 35 9 16 7 19 -10 19 -11 0 -20 4 -20
10 0 5 29 9 65 9 60 -1 65 -2 65 -23z m65 14 c3 -6 -4 -10 -17 -11 l-23 0 23
-10 c33 -13 27 -54 -8 -54 -20 0 -26 6 -28 28 -2 16 -1 35 2 43 6 16 42 19 51
4z"/>
<path d="M1010 6550 c0 -5 5 -10 10 -10 6 0 10 5 10 10 0 6 -4 10 -10 10 -5 0
-10 -4 -10 -10z"/>
<path d="M6963 6623 c32 -5 32 -9 3 -75 -9 -22 -12 -38 -6 -38 5 0 10 7 10 15
0 9 9 33 20 55 11 22 20 42 20 45 0 3 -17 4 -37 4 -32 -2 -34 -3 -10 -6z"/>
<path d="M7600 6610 c-6 -11 -7 -20 -1 -20 5 0 11 7 15 15 7 20 25 19 33 -1 4
-10 -6 -26 -26 -44 -42 -39 -39 -50 12 -48 36 1 38 2 10 5 -18 2 -33 7 -33 10
0 3 14 18 31 34 25 24 28 31 19 49 -14 26 -46 26 -60 0z"/>
<path d="M7689 6603 c-5 -14 -7 -39 -3 -55 12 -59 64 -42 64 21 0 61 -42 84
-61 34z m46 -34 c0 -32 -4 -44 -15 -44 -16 0 -26 54 -16 82 12 30 31 6 31 -38z"/>
<path d="M7780 6610 c-6 -11 -7 -20 -1 -20 5 0 11 7 15 15 7 20 25 19 33 -1 4
-10 -6 -26 -26 -44 -42 -39 -39 -50 12 -48 36 1 38 2 10 5 -18 2 -33 7 -33 10
0 3 14 18 31 34 25 24 28 31 19 49 -14 26 -46 26 -60 0z"/>
<path d="M7884 6605 c-11 -8 -14 -15 -6 -15 7 0 12 -15 12 -40 0 -22 5 -40 10
-40 6 0 10 25 10 55 0 30 -1 55 -3 55 -2 0 -12 -7 -23 -15z"/>
<path d="M4930 6565 c0 -25 5 -45 10 -45 6 0 10 7 10 15 0 8 6 15 14 15 20 0
37 25 30 44 -4 10 -18 16 -35 16 -28 0 -29 -2 -29 -45z m45 15 c-3 -5 -10 -10
-16 -10 -5 0 -9 5 -9 10 0 6 7 10 16 10 8 0 12 -4 9 -10z"/>
<path d="M5071 6565 c-1 -26 2 -45 9 -45 5 0 10 20 10 45 0 25 -4 45 -8 45 -5
0 -9 -20 -11 -45z"/>
<path d="M5150 6600 c0 -5 -6 -10 -14 -10 -21 0 -38 -27 -31 -50 4 -14 15 -20
36 -20 28 0 29 2 29 45 0 25 -4 45 -10 45 -5 0 -10 -4 -10 -10z m-8 -45 c0 -5
-5 -11 -11 -13 -6 -2 -11 4 -11 13 0 9 5 15 11 13 6 -2 11 -8 11 -13z"/>
<path d="M7068 6540 c-2 -37 1 -59 7 -57 13 5 19 117 6 117 -5 0 -11 -27 -13
-60z"/>
<path d="M7117 6594 c-14 -14 -7 -26 8 -14 8 6 19 9 25 5 17 -11 11 -23 -12
-27 -15 -2 -23 -10 -23 -23 0 -16 7 -20 30 -20 30 -1 31 0 25 40 -4 30 -10 41
-25 43 -12 2 -24 0 -28 -4z m41 -56 c-7 -19 -38 -22 -38 -4 0 10 9 16 21 16
12 0 19 -5 17 -12z"/>
<path d="M7201 6551 l2 -46 6 40 c4 26 12 41 23 43 13 3 18 -6 21 -40 l4 -43
-1 45 c-1 42 -3 45 -28 46 -27 1 -28 -1 -27 -45z"/>
<path d="M7294 6558 c1 -40 3 -43 29 -44 26 -1 27 1 26 45 l-2 46 -6 -40 c-9
-57 -38 -61 -44 -6 l-4 41 1 -42z"/>
<path d="M7387 6594 c-14 -14 -7 -26 8 -14 11 9 19 10 26 3 8 -8 2 -15 -18
-25 -40 -19 -37 -43 8 -44 l35 -2 -5 42 c-5 31 -11 42 -26 44 -12 2 -24 0 -28
-4z m41 -56 c-7 -19 -38 -22 -38 -4 0 10 9 16 21 16 12 0 19 -5 17 -12z"/>
<path d="M7460 6553 c0 -24 5 -43 10 -43 6 0 10 15 10 33 0 18 4 37 10 43 6 6
3 10 -10 10 -17 0 -20 -7 -20 -43z"/>
<path d="M7523 6555 c0 -27 2 -38 4 -22 2 15 2 37 0 50 -2 12 -4 0 -4 -28z"/>
<path d="M5010 6581 c0 -6 8 -11 18 -12 12 0 11 -3 -6 -10 -30 -12 -23 -33 12
-37 26 -3 27 -1 24 30 -2 25 -8 34 -25 36 -13 2 -23 -1 -23 -7z"/>
<path d="M6963 6433 c32 -5 32 -9 3 -75 -9 -22 -12 -38 -6 -38 5 0 10 7 10 15
0 9 9 33 20 55 11 22 20 42 20 45 0 3 -17 4 -37 4 -32 -2 -34 -3 -10 -6z"/>
<path d="M7210 6420 c-6 -11 -7 -20 -1 -20 5 0 11 7 15 15 7 20 25 19 33 -1 4
-10 -6 -26 -26 -44 -42 -39 -39 -50 12 -48 36 1 38 2 10 5 -18 2 -33 7 -33 10
0 3 14 18 31 34 25 24 28 31 19 49 -14 26 -46 26 -60 0z"/>
<path d="M7299 6413 c-5 -14 -7 -39 -3 -55 12 -59 64 -42 64 21 0 61 -42 84
-61 34z m46 -34 c0 -32 -4 -44 -15 -44 -16 0 -26 54 -16 82 12 30 31 6 31 -38z"/>
<path d="M7392 6428 c-20 -20 -14 -33 7 -14 21 19 41 14 41 -9 0 -7 -13 -23
-30 -35 -42 -30 -39 -50 8 -49 30 2 32 3 10 6 -35 5 -35 18 -2 39 18 12 24 24
22 43 -3 29 -35 40 -56 19z"/>
<path d="M7094 6415 c-11 -8 -14 -15 -6 -15 7 0 12 -15 12 -40 0 -22 5 -40 10
-40 6 0 10 25 10 55 0 30 -1 55 -3 55 -2 0 -12 -7 -23 -15z"/>
<path d="M7494 6415 c-11 -8 -14 -15 -6 -15 7 0 12 -15 12 -40 0 -22 5 -40 10
-40 6 0 10 25 10 55 0 30 -1 55 -3 55 -2 0 -12 -7 -23 -15z"/>
<path d="M7026 6354 c-4 -14 -5 -28 -3 -31 3 -2 8 8 11 23 4 14 5 28 3 31 -3
2 -8 -8 -11 -23z"/>
<path d="M496 5804 c-11 -10 -16 -34 -16 -74 0 -94 -12 -90 305 -90 317 0 305
-4 305 90 0 94 12 90 -305 90 -235 0 -276 -2 -289 -16z m74 -59 c0 -33 -4 -45
-15 -45 -10 0 -15 10 -15 30 0 17 -5 30 -12 30 -12 0 21 29 35 30 4 0 7 -20 7
-45z m80 35 c0 -5 -5 -10 -10 -10 -6 0 -6 -7 1 -19 7 -10 9 -26 6 -35 -8 -21
-57 -22 -57 -1 0 9 6 15 14 13 8 -2 15 2 15 7 0 6 -7 9 -15 7 -9 -2 -14 6 -14
23 0 21 5 25 30 25 17 0 30 -4 30 -10z m50 -35 c0 -25 -4 -45 -10 -45 -5 0
-10 14 -10 30 0 17 -5 30 -11 30 -8 0 -8 5 1 15 21 26 30 17 30 -30z m70 0 c0
-33 -4 -45 -15 -45 -10 0 -15 10 -15 30 0 17 -5 30 -12 30 -12 0 21 29 35 30
4 0 7 -20 7 -45z m80 35 c0 -5 -5 -10 -10 -10 -16 0 12 -38 32 -43 10 -3 18
-1 18 4 0 5 -5 9 -11 9 -8 0 -8 4 0 14 10 12 8 13 -9 9 -16 -4 -19 -2 -14 11
3 9 16 16 29 16 18 0 24 -7 28 -37 4 -20 4 -40 1 -45 -8 -13 -54 -10 -54 4 0
9 -3 9 -12 0 -18 -18 -58 -15 -58 3 0 9 6 15 14 13 8 -2 15 2 15 7 0 6 -7 9
-15 7 -9 -2 -14 6 -14 23 0 21 5 25 30 25 17 0 30 -4 30 -10z m120 -35 c0 -33
-4 -45 -15 -45 -10 0 -15 10 -15 30 0 17 -5 30 -12 30 -12 0 21 29 35 30 4 0
7 -20 7 -45z m80 35 c0 -5 -5 -10 -10 -10 -6 0 -6 -7 1 -19 7 -10 9 -26 6 -35
-8 -21 -57 -22 -57 -1 0 9 6 15 14 13 8 -2 15 2 15 7 0 6 -7 9 -15 7 -9 -2
-14 6 -14 23 0 21 5 25 30 25 17 0 30 -4 30 -10z"/>
<path d="M6963 5803 c32 -5 32 -9 3 -75 -9 -22 -12 -38 -6 -38 5 0 10 7 10 15
0 9 9 33 20 55 11 22 20 42 20 45 0 3 -17 4 -37 4 -32 -2 -34 -3 -10 -6z"/>
<path d="M7600 5790 c-6 -11 -7 -20 -1 -20 5 0 11 7 15 15 7 20 25 19 33 -1 4
-10 -6 -26 -26 -44 -42 -39 -39 -50 12 -48 36 1 38 2 10 5 -18 2 -33 7 -33 10
0 3 14 18 31 34 25 24 28 31 19 49 -14 26 -46 26 -60 0z"/>
<path d="M7689 5783 c-5 -14 -7 -39 -3 -55 12 -59 64 -42 64 21 0 61 -42 84
-61 34z m46 -34 c0 -32 -4 -44 -15 -44 -16 0 -26 54 -16 82 12 30 31 6 31 -38z"/>
<path d="M7780 5790 c-6 -11 -7 -20 -1 -20 5 0 11 7 15 15 7 20 25 19 33 -1 4
-10 -6 -26 -26 -44 -42 -39 -39 -50 12 -48 36 1 38 2 10 5 -18 2 -33 7 -33 10
0 3 14 18 31 34 25 24 28 31 19 49 -14 26 -46 26 -60 0z"/>
<path d="M7884 5785 c-11 -8 -14 -15 -6 -15 7 0 12 -15 12 -40 0 -22 5 -40 10
-40 6 0 10 25 10 55 0 30 -1 55 -3 55 -2 0 -12 -7 -23 -15z"/>
<path d="M4930 5745 c0 -25 5 -45 10 -45 6 0 10 7 10 15 0 8 6 15 14 15 20 0
37 25 30 44 -4 10 -18 16 -35 16 -28 0 -29 -2 -29 -45z m45 15 c-3 -5 -10 -10
-16 -10 -5 0 -9 5 -9 10 0 6 7 10 16 10 8 0 12 -4 9 -10z"/>
<path d="M5071 5745 c-1 -26 2 -45 9 -45 5 0 10 20 10 45 0 25 -4 45 -8 45 -5
0 -9 -20 -11 -45z"/>
<path d="M5150 5780 c0 -5 -6 -10 -14 -10 -21 0 -38 -27 -31 -50 4 -14 15 -20
36 -20 28 0 29 2 29 45 0 25 -4 45 -10 45 -5 0 -10 -4 -10 -10z m-8 -45 c0 -5
-5 -11 -11 -13 -6 -2 -11 4 -11 13 0 9 5 15 11 13 6 -2 11 -8 11 -13z"/>
<path d="M7068 5720 c-2 -37 1 -59 7 -57 13 5 19 117 6 117 -5 0 -11 -27 -13
-60z"/>
<path d="M7117 5774 c-14 -14 -7 -26 8 -14 8 6 19 9 25 5 17 -11 11 -23 -12
-27 -15 -2 -23 -10 -23 -23 0 -16 7 -20 30 -20 30 -1 31 0 25 40 -4 30 -10 41
-25 43 -12 2 -24 0 -28 -4z m41 -56 c-7 -19 -38 -22 -38 -4 0 10 9 16 21 16
12 0 19 -5 17 -12z"/>
<path d="M7201 5731 l2 -46 6 40 c4 26 12 41 23 43 13 3 18 -6 21 -40 l4 -43
-1 45 c-1 42 -3 45 -28 46 -27 1 -28 -1 -27 -45z"/>
<path d="M7294 5738 c1 -40 3 -43 29 -44 26 -1 27 1 26 45 l-2 46 -6 -40 c-9
-57 -38 -61 -44 -6 l-4 41 1 -42z"/>
<path d="M7387 5774 c-14 -14 -7 -26 8 -14 11 9 19 10 26 3 8 -8 2 -15 -18
-25 -40 -19 -37 -43 8 -44 l35 -2 -5 42 c-5 31 -11 42 -26 44 -12 2 -24 0 -28
-4z m41 -56 c-7 -19 -38 -22 -38 -4 0 10 9 16 21 16 12 0 19 -5 17 -12z"/>
<path d="M7460 5733 c0 -24 5 -43 10 -43 6 0 10 15 10 33 0 18 4 37 10 43 6 6
3 10 -10 10 -17 0 -20 -7 -20 -43z"/>
<path d="M7523 5735 c0 -27 2 -38 4 -22 2 15 2 37 0 50 -2 12 -4 0 -4 -28z"/>
<path d="M5010 5761 c0 -6 8 -11 18 -12 12 0 11 -3 -6 -10 -30 -12 -23 -33 12
-37 26 -3 27 -1 24 30 -2 25 -8 34 -25 36 -13 2 -23 -1 -23 -7z"/>
<path d="M6963 5613 c32 -5 32 -9 3 -75 -9 -22 -12 -38 -6 -38 5 0 10 7 10 15
0 9 9 33 20 55 11 22 20 42 20 45 0 3 -17 4 -37 4 -32 -2 -34 -3 -10 -6z"/>
<path d="M7210 5600 c-6 -11 -7 -20 -1 -20 5 0 11 7 15 15 7 20 25 19 33 -1 4
-10 -6 -26 -26 -44 -42 -39 -39 -50 12 -48 36 1 38 2 10 5 -18 2 -33 7 -33 10
0 3 14 18 31 34 25 24 28 31 19 49 -14 26 -46 26 -60 0z"/>
<path d="M7299 5593 c-5 -14 -7 -39 -3 -55 12 -59 64 -42 64 21 0 61 -42 84
-61 34z m46 -34 c0 -32 -4 -44 -15 -44 -16 0 -26 54 -16 82 12 30 31 6 31 -38z"/>
<path d="M7392 5608 c-20 -20 -14 -33 7 -14 21 19 41 14 41 -9 0 -7 -13 -23
-30 -35 -42 -30 -39 -50 8 -49 30 2 32 3 10 6 -35 5 -35 18 -2 39 18 12 24 24
22 43 -3 29 -35 40 -56 19z"/>
<path d="M7094 5595 c-11 -8 -14 -15 -6 -15 7 0 12 -15 12 -40 0 -22 5 -40 10
-40 6 0 10 25 10 55 0 30 -1 55 -3 55 -2 0 -12 -7 -23 -15z"/>
<path d="M7494 5595 c-11 -8 -14 -15 -6 -15 7 0 12 -15 12 -40 0 -22 5 -40 10
-40 6 0 10 25 10 55 0 30 -1 55 -3 55 -2 0 -12 -7 -23 -15z"/>
<path d="M7026 5534 c-4 -14 -5 -28 -3 -31 3 -2 8 8 11 23 4 14 5 28 3 31 -3
2 -8 -8 -11 -23z"/>
<path d="M496 4984 c-11 -10 -16 -34 -16 -74 0 -94 -12 -90 305 -90 317 0 305
-4 305 90 0 94 12 90 -305 90 -235 0 -276 -2 -289 -16z m74 -59 c0 -33 -4 -45
-15 -45 -10 0 -15 10 -15 30 0 17 -5 30 -12 30 -12 0 21 29 35 30 4 0 7 -20 7
-45z m80 35 c0 -5 -5 -10 -10 -10 -6 0 -6 -7 1 -19 7 -10 9 -26 6 -35 -8 -21
-57 -22 -57 -1 0 9 6 15 14 13 8 -2 15 2 15 7 0 6 -7 9 -15 7 -9 -2 -14 6 -14
23 0 21 5 25 30 25 17 0 30 -4 30 -10z m50 -35 c0 -25 -4 -45 -10 -45 -5 0
-10 14 -10 30 0 17 -5 30 -11 30 -8 0 -8 5 1 15 21 26 30 17 30 -30z m70 0 c0
-33 -4 -45 -15 -45 -10 0 -15 10 -15 30 0 17 -5 30 -12 30 -12 0 21 29 35 30
4 0 7 -20 7 -45z m74 33 c5 -10 7 -10 12 0 3 6 16 12 29 12 13 0 26 -6 29 -12
5 -10 7 -10 12 0 10 20 45 14 52 -10 l5 -22 8 22 c5 13 17 22 28 22 28 0 37
-20 9 -21 l-23 0 23 -10 c17 -6 22 -15 20 -31 -4 -28 -37 -36 -54 -14 -10 14
-13 14 -17 2 -7 -16 -105 -20 -124 -4 -9 7 -13 7 -13 -1 0 -6 -11 -11 -25 -11
-22 0 -25 4 -25 38 0 21 3 42 7 45 11 11 41 8 47 -5z"/>
<path d="M943 4934 c-3 -8 -1 -20 6 -27 8 -8 11 -4 11 16 0 30 -7 35 -17 11z"/>
<path d="M1010 4910 c0 -5 5 -10 10 -10 6 0 10 5 10 10 0 6 -4 10 -10 10 -5 0
-10 -4 -10 -10z"/>
<path d="M6953 4978 c-4 -7 -9 -32 -10 -55 -3 -35 0 -43 18 -48 31 -10 58 19
42 44 -8 13 -9 21 -1 29 8 8 8 15 -2 27 -15 18 -36 20 -47 3z m35 -21 c2 -10
-3 -17 -12 -17 -18 0 -29 16 -21 31 9 14 29 6 33 -14z m10 -50 c4 -20 -25 -34
-40 -19 -15 15 -1 44 19 40 10 -2 19 -11 21 -21z"/>
<path d="M7600 4970 c-6 -11 -7 -20 -1 -20 5 0 11 7 15 15 7 20 25 19 33 -1 4
-10 -6 -26 -26 -44 -42 -39 -39 -50 12 -48 36 1 38 2 10 5 -18 2 -33 7 -33 10
0 3 14 18 31 34 25 24 28 31 19 49 -14 26 -46 26 -60 0z"/>
<path d="M7689 4963 c-5 -14 -7 -39 -3 -55 12 -59 64 -42 64 21 0 61 -42 84
-61 34z m46 -34 c0 -32 -4 -44 -15 -44 -16 0 -26 54 -16 82 12 30 31 6 31 -38z"/>
<path d="M7780 4970 c-6 -11 -7 -20 -1 -20 5 0 11 7 15 15 7 20 25 19 33 -1 4
-10 -6 -26 -26 -44 -42 -39 -39 -50 12 -48 36 1 38 2 10 5 -18 2 -33 7 -33 10
0 3 14 18 31 34 25 24 28 31 19 49 -14 26 -46 26 -60 0z"/>
<path d="M7884 4965 c-11 -8 -14 -15 -6 -15 7 0 12 -15 12 -40 0 -22 5 -40 10
-40 6 0 10 25 10 55 0 30 -1 55 -3 55 -2 0 -12 -7 -23 -15z"/>
<path d="M4930 4925 c0 -25 5 -45 10 -45 6 0 10 7 10 15 0 8 6 15 14 15 20 0
37 25 30 44 -4 10 -18 16 -35 16 -28 0 -29 -2 -29 -45z m45 15 c-3 -5 -10 -10
-16 -10 -5 0 -9 5 -9 10 0 6 7 10 16 10 8 0 12 -4 9 -10z"/>
<path d="M5071 4925 c-1 -26 2 -45 9 -45 5 0 10 20 10 45 0 25 -4 45 -8 45 -5
0 -9 -20 -11 -45z"/>
<path d="M5150 4960 c0 -5 -6 -10 -14 -10 -21 0 -38 -27 -31 -50 4 -14 15 -20
36 -20 28 0 29 2 29 45 0 25 -4 45 -10 45 -5 0 -10 -4 -10 -10z m-8 -45 c0 -5
-5 -11 -11 -13 -6 -2 -11 4 -11 13 0 9 5 15 11 13 6 -2 11 -8 11 -13z"/>
<path d="M7068 4900 c-2 -37 1 -59 7 -57 13 5 19 117 6 117 -5 0 -11 -27 -13
-60z"/>
<path d="M7117 4954 c-14 -14 -7 -26 8 -14 8 6 19 9 25 5 17 -11 11 -23 -12
-27 -15 -2 -23 -10 -23 -23 0 -16 7 -20 30 -20 30 -1 31 0 25 40 -4 30 -10 41
-25 43 -12 2 -24 0 -28 -4z m41 -56 c-7 -19 -38 -22 -38 -4 0 10 9 16 21 16
12 0 19 -5 17 -12z"/>
<path d="M7201 4911 l2 -46 6 40 c4 26 12 41 23 43 13 3 18 -6 21 -40 l4 -43
-1 45 c-1 42 -3 45 -28 46 -27 1 -28 -1 -27 -45z"/>
<path d="M7294 4918 c1 -40 3 -43 29 -44 26 -1 27 1 26 45 l-2 46 -6 -40 c-9
-57 -38 -61 -44 -6 l-4 41 1 -42z"/>
<path d="M7387 4954 c-14 -14 -7 -26 8 -14 11 9 19 10 26 3 8 -8 2 -15 -18
-25 -40 -19 -37 -43 8 -44 l35 -2 -5 42 c-5 31 -11 42 -26 44 -12 2 -24 0 -28
-4z m41 -56 c-7 -19 -38 -22 -38 -4 0 10 9 16 21 16 12 0 19 -5 17 -12z"/>
<path d="M7460 4913 c0 -24 5 -43 10 -43 6 0 10 15 10 33 0 18 4 37 10 43 6 6
3 10 -10 10 -17 0 -20 -7 -20 -43z"/>
<path d="M7523 4915 c0 -27 2 -38 4 -22 2 15 2 37 0 50 -2 12 -4 0 -4 -28z"/>
<path d="M5010 4941 c0 -6 8 -11 18 -12 12 0 11 -3 -6 -10 -30 -12 -23 -33 12
-37 26 -3 27 -1 24 30 -2 25 -8 34 -25 36 -13 2 -23 -1 -23 -7z"/>
<path d="M6953 4788 c-4 -7 -9 -32 -10 -55 -3 -35 0 -43 18 -48 31 -10 58 19
42 44 -8 13 -9 21 -1 29 8 8 8 15 -2 27 -15 18 -36 20 -47 3z m35 -21 c2 -10
-3 -17 -12 -17 -18 0 -29 16 -21 31 9 14 29 6 33 -14z m10 -50 c4 -20 -25 -34
-40 -19 -15 15 -1 44 19 40 10 -2 19 -11 21 -21z"/>
<path d="M7210 4780 c-6 -11 -7 -20 -1 -20 5 0 11 7 15 15 7 20 25 19 33 -1 4
-10 -6 -26 -26 -44 -42 -39 -39 -50 12 -48 36 1 38 2 10 5 -18 2 -33 7 -33 10
0 3 14 18 31 34 25 24 28 31 19 49 -14 26 -46 26 -60 0z"/>
<path d="M7299 4773 c-5 -14 -7 -39 -3 -55 12 -59 64 -42 64 21 0 61 -42 84
-61 34z m46 -34 c0 -32 -4 -44 -15 -44 -16 0 -26 54 -16 82 12 30 31 6 31 -38z"/>
<path d="M7392 4788 c-20 -20 -14 -33 7 -14 21 19 41 14 41 -9 0 -7 -13 -23
-30 -35 -42 -30 -39 -50 8 -49 30 2 32 3 10 6 -35 5 -35 18 -2 39 18 12 24 24
22 43 -3 29 -35 40 -56 19z"/>
<path d="M7094 4775 c-11 -8 -14 -15 -6 -15 7 0 12 -15 12 -40 0 -22 5 -40 10
-40 6 0 10 25 10 55 0 30 -1 55 -3 55 -2 0 -12 -7 -23 -15z"/>
<path d="M7494 4775 c-11 -8 -14 -15 -6 -15 7 0 12 -15 12 -40 0 -22 5 -40 10
-40 6 0 10 25 10 55 0 30 -1 55 -3 55 -2 0 -12 -7 -23 -15z"/>
<path d="M7026 4714 c-4 -14 -5 -28 -3 -31 3 -2 8 8 11 23 4 14 5 28 3 31 -3
2 -8 -8 -11 -23z"/>
<path d="M496 4164 c-11 -10 -16 -34 -16 -74 0 -94 -12 -90 305 -90 317 0 305
-4 305 90 0 94 12 90 -305 90 -235 0 -276 -2 -289 -16z m74 -59 c0 -33 -4 -45
-15 -45 -10 0 -15 10 -15 30 0 17 -5 30 -12 30 -12 0 21 29 35 30 4 0 7 -20 7
-45z m80 35 c0 -5 -5 -10 -10 -10 -6 0 -6 -7 1 -19 7 -10 9 -26 6 -35 -8 -21
-57 -22 -57 -1 0 9 6 15 14 13 8 -2 15 2 15 7 0 6 -7 9 -15 7 -9 -2 -14 6 -14
23 0 21 5 25 30 25 17 0 30 -4 30 -10z m50 -35 c0 -25 -4 -45 -10 -45 -5 0
-10 14 -10 30 0 17 -5 30 -11 30 -8 0 -8 5 1 15 21 26 30 17 30 -30z m80 22
c0 -13 -5 -28 -12 -35 -9 -9 -9 -12 0 -12 7 0 12 -4 12 -10 0 -5 -13 -10 -30
-10 -35 0 -38 10 -10 35 22 20 28 44 6 26 -10 -8 -16 -9 -21 -1 -10 16 4 30
31 30 18 0 24 -5 24 -23z m68 -8 c3 -28 42 -50 42 -23 0 8 -6 11 -15 8 -11 -5
-15 1 -15 20 0 21 5 26 26 26 19 0 25 -4 21 -15 -4 -8 -2 -17 2 -20 5 -2 11 4
14 15 7 27 47 27 54 0 3 -11 9 -20 13 -20 5 0 12 9 15 20 8 26 35 26 35 1 0
-11 2 -25 5 -33 7 -18 -15 -48 -22 -30 -6 15 -28 16 -52 0 -25 -15 -52 -4 -46
19 3 11 1 9 -6 -4 -10 -19 -19 -22 -68 -20 -54 2 -56 3 -59 30 -5 42 5 59 30
55 16 -2 24 -11 26 -29z"/>
<path d="M810 4105 c0 -15 4 -24 10 -20 6 3 10 12 10 20 0 8 -4 17 -10 20 -6
4 -10 -5 -10 -20z"/>
<path d="M940 4120 c0 -5 5 -10 10 -10 6 0 10 5 10 10 0 6 -4 10 -10 10 -5 0
-10 -4 -10 -10z"/>
<path d="M6953 4158 c-4 -7 -9 -32 -10 -55 -3 -35 0 -43 18 -48 31 -10 58 19
42 44 -8 13 -9 21 -1 29 8 8 8 15 -2 27 -15 18 -36 20 -47 3z m35 -21 c2 -10
-3 -17 -12 -17 -18 0 -29 16 -21 31 9 14 29 6 33 -14z m10 -50 c4 -20 -25 -34
-40 -19 -15 15 -1 44 19 40 10 -2 19 -11 21 -21z"/>
<path d="M7600 4150 c-6 -11 -7 -20 -1 -20 5 0 11 7 15 15 7 20 25 19 33 -1 4
-10 -6 -26 -26 -44 -42 -39 -39 -50 12 -48 36 1 38 2 10 5 -18 2 -33 7 -33 10
0 3 14 18 31 34 25 24 28 31 19 49 -14 26 -46 26 -60 0z"/>
<path d="M7689 4143 c-5 -14 -7 -39 -3 -55 12 -59 64 -42 64 21 0 61 -42 84
-61 34z m46 -34 c0 -32 -4 -44 -15 -44 -16 0 -26 54 -16 82 12 30 31 6 31 -38z"/>
<path d="M7780 4150 c-6 -11 -7 -20 -1 -20 5 0 11 7 15 15 7 20 25 19 33 -1 4
-10 -6 -26 -26 -44 -42 -39 -39 -50 12 -48 36 1 38 2 10 5 -18 2 -33 7 -33 10
0 3 14 18 31 34 25 24 28 31 19 49 -14 26 -46 26 -60 0z"/>
<path d="M7884 4145 c-11 -8 -14 -15 -6 -15 7 0 12 -15 12 -40 0 -22 5 -40 10
-40 6 0 10 25 10 55 0 30 -1 55 -3 55 -2 0 -12 -7 -23 -15z"/>
<path d="M4930 4106 c0 -25 5 -46 10 -46 6 0 10 7 10 15 0 8 7 15 15 15 8 0
15 -7 15 -15 0 -8 4 -15 9 -15 5 0 9 19 8 43 -2 40 -4 42 -34 45 -33 3 -33 3
-33 -42z m50 14 c0 -5 -7 -10 -15 -10 -8 0 -15 5 -15 10 0 6 7 10 15 10 8 0
15 -4 15 -10z"/>
<path d="M5190 4140 c0 -5 -6 -10 -14 -10 -21 0 -38 -27 -31 -50 4 -14 15 -20
36 -20 26 0 29 3 30 33 l1 32 12 -35 c9 -23 10 -39 3 -47 -7 -9 -5 -13 5 -13
8 0 21 21 30 50 16 51 10 69 -10 28 -7 -15 -11 -18 -11 -8 -1 9 -10 23 -21 33
-23 20 -30 21 -30 7z m-2 -48 c2 -7 -3 -12 -12 -12 -9 0 -16 7 -16 16 0 17 22
14 28 -4z"/>
<path d="M7068 4080 c-2 -37 1 -59 7 -57 13 5 19 117 6 117 -5 0 -11 -27 -13
-60z"/>
<path d="M7117 4134 c-14 -14 -7 -26 8 -14 8 6 19 9 25 5 17 -11 11 -23 -12
-27 -15 -2 -23 -10 -23 -23 0 -16 7 -20 30 -20 30 -1 31 0 25 40 -4 30 -10 41
-25 43 -12 2 -24 0 -28 -4z m41 -56 c-7 -19 -38 -22 -38 -4 0 10 9 16 21 16
12 0 19 -5 17 -12z"/>
<path d="M7201 4091 l2 -46 6 40 c4 26 12 41 23 43 13 3 18 -6 21 -40 l4 -43
-1 45 c-1 42 -3 45 -28 46 -27 1 -28 -1 -27 -45z"/>
<path d="M7294 4098 c1 -40 3 -43 29 -44 26 -1 27 1 26 45 l-2 46 -6 -40 c-9
-57 -38 -61 -44 -6 l-4 41 1 -42z"/>
<path d="M7387 4134 c-14 -14 -7 -26 8 -14 11 9 19 10 26 3 8 -8 2 -15 -18
-25 -40 -19 -37 -43 8 -44 l35 -2 -5 42 c-5 31 -11 42 -26 44 -12 2 -24 0 -28
-4z m41 -56 c-7 -19 -38 -22 -38 -4 0 10 9 16 21 16 12 0 19 -5 17 -12z"/>
<path d="M7460 4093 c0 -24 5 -43 10 -43 6 0 10 15 10 33 0 18 4 37 10 43 6 6
3 10 -10 10 -17 0 -20 -7 -20 -43z"/>
<path d="M7523 4095 c0 -27 2 -38 4 -22 2 15 2 37 0 50 -2 12 -4 0 -4 -28z"/>
<path d="M5014 4116 c-10 -26 1 -51 24 -54 12 -2 22 2 22 8 0 7 -7 10 -15 6
-8 -3 -15 -1 -15 4 0 6 9 10 20 10 23 0 26 10 8 28 -16 16 -37 15 -44 -2z"/>
<path d="M5086 4121 c-4 -5 2 -12 11 -14 17 -4 17 -5 1 -6 -11 -1 -18 -9 -18
-21 0 -15 7 -20 29 -20 27 0 28 2 22 32 -7 32 -33 49 -45 29z"/>
<path d="M6953 3968 c-4 -7 -9 -32 -10 -55 -3 -35 0 -43 18 -48 31 -10 58 19
42 44 -8 13 -9 21 -1 29 8 8 8 15 -2 27 -15 18 -36 20 -47 3z m35 -21 c2 -10
-3 -17 -12 -17 -18 0 -29 16 -21 31 9 14 29 6 33 -14z m10 -50 c4 -20 -25 -34
-40 -19 -15 15 -1 44 19 40 10 -2 19 -11 21 -21z"/>
<path d="M7210 3960 c-6 -11 -7 -20 -1 -20 5 0 11 7 15 15 7 20 25 19 33 -1 4
-10 -6 -26 -26 -44 -42 -39 -39 -50 12 -48 36 1 38 2 10 5 -18 2 -33 7 -33 10
0 3 14 18 31 34 25 24 28 31 19 49 -14 26 -46 26 -60 0z"/>
<path d="M7299 3953 c-5 -14 -7 -39 -3 -55 12 -59 64 -42 64 21 0 61 -42 84
-61 34z m46 -34 c0 -32 -4 -44 -15 -44 -16 0 -26 54 -16 82 12 30 31 6 31 -38z"/>
<path d="M7392 3968 c-20 -20 -14 -33 7 -14 21 19 41 14 41 -9 0 -7 -13 -23
-30 -35 -42 -30 -39 -50 8 -49 30 2 32 3 10 6 -35 5 -35 18 -2 39 18 12 24 24
22 43 -3 29 -35 40 -56 19z"/>
<path d="M2613 3963 c27 -4 35 -20 18 -38 -12 -14 -31 -75 -23 -75 4 0 16 24
27 53 11 28 21 55 23 60 2 4 -14 6 -35 6 -30 -2 -32 -3 -10 -6z"/>
<path d="M2733 3958 c-15 -21 -10 -90 8 -101 31 -20 48 -2 47 50 0 46 -10 63
-34 63 -6 0 -16 -6 -21 -12z m41 -13 c3 -9 -1 -18 -10 -22 -19 -7 -28 2 -21
22 8 19 23 19 31 0z m3 -51 c3 -8 1 -20 -5 -26 -15 -15 -43 8 -35 28 7 19 32
18 40 -2z"/>
<path d="M7094 3955 c-11 -8 -14 -15 -6 -15 7 0 12 -15 12 -40 0 -22 5 -40 10
-40 6 0 10 25 10 55 0 30 -1 55 -3 55 -2 0 -12 -7 -23 -15z"/>
<path d="M7494 3955 c-11 -8 -14 -15 -6 -15 7 0 12 -15 12 -40 0 -22 5 -40 10
-40 6 0 10 25 10 55 0 30 -1 55 -3 55 -2 0 -12 -7 -23 -15z"/>
<path d="M2681 3899 c-7 -22 -11 -43 -8 -45 2 -2 9 14 16 37 7 22 11 43 8 45
-2 2 -9 -14 -16 -37z"/>
<path d="M7026 3894 c-4 -14 -5 -28 -3 -31 3 -2 8 8 11 23 4 14 5 28 3 31 -3
2 -8 -8 -11 -23z"/>
<path d="M2625 3750 c3 -5 13 -10 21 -10 11 0 12 -4 4 -19 -12 -24 -13 -51 -1
-51 5 0 11 10 14 23 3 12 9 32 12 45 7 20 4 22 -24 22 -19 0 -30 -4 -26 -10z"/>
<path d="M2706 3749 c-2 -8 -9 -29 -15 -46 -5 -18 -7 -33 -3 -33 9 0 33 82 26
89 -2 2 -5 -2 -8 -10z"/>
<path d="M2729 3753 c-1 -4 -2 -24 -2 -43 -2 -31 1 -35 23 -35 23 0 25 4 25
40 0 34 -3 40 -22 43 -13 2 -23 0 -24 -5z m31 -23 c0 -5 -2 -10 -4 -10 -3 0
-8 5 -11 10 -3 6 -1 10 4 10 6 0 11 -4 11 -10z m0 -30 c0 -5 -5 -10 -11 -10
-5 0 -7 5 -4 10 3 6 8 10 11 10 2 0 4 -4 4 -10z"/>
<path d="M496 3344 c-11 -10 -16 -34 -16 -74 0 -94 -12 -90 305 -90 317 0 305
-4 305 90 0 94 12 90 -305 90 -235 0 -276 -2 -289 -16z m74 -59 c0 -33 -4 -45
-15 -45 -10 0 -15 10 -15 30 0 17 -5 30 -12 30 -12 0 21 29 35 30 4 0 7 -20 7
-45z m80 35 c0 -5 -5 -10 -10 -10 -6 0 -6 -7 1 -19 7 -10 9 -26 6 -35 -8 -21
-57 -22 -57 -1 0 9 6 15 14 13 8 -2 15 2 15 7 0 6 -7 9 -15 7 -9 -2 -14 6 -14
23 0 21 5 25 30 25 17 0 30 -4 30 -10z m50 -35 c0 -25 -4 -45 -10 -45 -5 0
-10 14 -10 30 0 17 -5 30 -11 30 -8 0 -8 5 1 15 21 26 30 17 30 -30z m80 21
c0 -14 -5 -28 -11 -32 -8 -5 -8 -9 1 -14 13 -8 65 38 55 49 -4 3 -10 -1 -15
-9 -11 -18 -24 -6 -16 15 8 21 50 16 54 -6 2 -9 -4 -24 -13 -32 -14 -14 -12
-15 20 -14 20 1 35 7 35 14 0 7 -7 10 -15 7 -11 -5 -15 1 -15 20 0 21 5 26 26
26 19 0 25 -4 21 -14 -3 -8 0 -19 7 -25 10 -8 16 -5 24 14 16 36 42 33 42 -5
0 -20 5 -30 15 -30 8 0 17 0 20 0 3 0 4 3 3 8 -1 4 -8 6 -15 4 -8 -2 -13 7
-13 23 0 21 5 25 30 25 17 0 30 -4 30 -10 0 -5 -5 -10 -10 -10 -6 0 -6 -7 1
-19 7 -10 9 -26 6 -35 -7 -19 -57 -22 -58 -3 0 10 -2 10 -6 0 -6 -15 -33 -17
-33 -3 0 6 -9 10 -20 10 -11 0 -20 -4 -20 -9 0 -5 -43 -10 -95 -10 -52 -1 -95
3 -95 7 0 5 9 17 20 27 22 20 28 44 6 26 -10 -8 -16 -9 -21 -1 -10 16 4 30 31
30 19 0 24 -5 24 -24z"/>
<path d="M6953 3338 c-4 -7 -9 -32 -10 -55 -3 -35 0 -43 18 -48 31 -10 58 19
42 44 -8 13 -9 21 -1 29 8 8 8 15 -2 27 -15 18 -36 20 -47 3z m35 -21 c2 -10
-3 -17 -12 -17 -18 0 -29 16 -21 31 9 14 29 6 33 -14z m10 -50 c4 -20 -25 -34
-40 -19 -15 15 -1 44 19 40 10 -2 19 -11 21 -21z"/>
<path d="M7600 3330 c-6 -11 -7 -20 -1 -20 5 0 11 7 15 15 7 20 25 19 33 -1 4
-10 -6 -26 -26 -44 -42 -39 -39 -50 12 -48 36 1 38 2 10 5 -18 2 -33 7 -33 10
0 3 14 18 31 34 25 24 28 31 19 49 -14 26 -46 26 -60 0z"/>
<path d="M7689 3323 c-5 -14 -7 -39 -3 -55 12 -59 64 -42 64 21 0 61 -42 84
-61 34z m46 -34 c0 -32 -4 -44 -15 -44 -16 0 -26 54 -16 82 12 30 31 6 31 -38z"/>
<path d="M7780 3330 c-6 -11 -7 -20 -1 -20 5 0 11 7 15 15 7 20 25 19 33 -1 4
-10 -6 -26 -26 -44 -42 -39 -39 -50 12 -48 36 1 38 2 10 5 -18 2 -33 7 -33 10
0 3 14 18 31 34 25 24 28 31 19 49 -14 26 -46 26 -60 0z"/>
<path d="M7884 3325 c-11 -8 -14 -15 -6 -15 7 0 12 -15 12 -40 0 -22 5 -40 10
-40 6 0 10 25 10 55 0 30 -1 55 -3 55 -2 0 -12 -7 -23 -15z"/>
<path d="M4930 3285 c0 -25 5 -45 10 -45 6 0 10 7 10 15 0 8 6 15 14 15 20 0
37 25 30 44 -4 10 -18 16 -35 16 -28 0 -29 -2 -29 -45z m45 15 c-3 -5 -10 -10
-16 -10 -5 0 -9 5 -9 10 0 6 7 10 16 10 8 0 12 -4 9 -10z"/>
<path d="M5071 3285 c-1 -26 2 -45 9 -45 5 0 10 20 10 45 0 25 -4 45 -8 45 -5
0 -9 -20 -11 -45z"/>
<path d="M5150 3320 c0 -5 -6 -10 -14 -10 -21 0 -38 -27 -31 -50 4 -14 15 -20
36 -20 28 0 29 2 29 45 0 25 -4 45 -10 45 -5 0 -10 -4 -10 -10z m-8 -45 c0 -5
-5 -11 -11 -13 -6 -2 -11 4 -11 13 0 9 5 15 11 13 6 -2 11 -8 11 -13z"/>
<path d="M7068 3260 c-2 -37 1 -59 7 -57 13 5 19 117 6 117 -5 0 -11 -27 -13
-60z"/>
<path d="M7117 3314 c-14 -14 -7 -26 8 -14 8 6 19 9 25 5 17 -11 11 -23 -12
-27 -15 -2 -23 -10 -23 -23 0 -16 7 -20 30 -20 30 -1 31 0 25 40 -4 30 -10 41
-25 43 -12 2 -24 0 -28 -4z m41 -56 c-7 -19 -38 -22 -38 -4 0 10 9 16 21 16
12 0 19 -5 17 -12z"/>
<path d="M7201 3271 l2 -46 6 40 c4 26 12 41 23 43 13 3 18 -6 21 -40 l4 -43
-1 45 c-1 42 -3 45 -28 46 -27 1 -28 -1 -27 -45z"/>
<path d="M7294 3278 c1 -40 3 -43 29 -44 26 -1 27 1 26 45 l-2 46 -6 -40 c-9
-57 -38 -61 -44 -6 l-4 41 1 -42z"/>
<path d="M7387 3314 c-14 -14 -7 -26 8 -14 11 9 19 10 26 3 8 -8 2 -15 -18
-25 -40 -19 -37 -43 8 -44 l35 -2 -5 42 c-5 31 -11 42 -26 44 -12 2 -24 0 -28
-4z m41 -56 c-7 -19 -38 -22 -38 -4 0 10 9 16 21 16 12 0 19 -5 17 -12z"/>
<path d="M7460 3273 c0 -24 5 -43 10 -43 6 0 10 15 10 33 0 18 4 37 10 43 6 6
3 10 -10 10 -17 0 -20 -7 -20 -43z"/>
<path d="M7523 3275 c0 -27 2 -38 4 -22 2 15 2 37 0 50 -2 12 -4 0 -4 -28z"/>
<path d="M5010 3301 c0 -6 8 -11 18 -12 12 0 11 -3 -6 -10 -30 -12 -23 -33 12
-37 26 -3 27 -1 24 30 -2 25 -8 34 -25 36 -13 2 -23 -1 -23 -7z"/>
<path d="M6953 3148 c-4 -7 -9 -32 -10 -55 -3 -35 0 -43 18 -48 31 -10 58 19
42 44 -8 13 -9 21 -1 29 8 8 8 15 -2 27 -15 18 -36 20 -47 3z m35 -21 c2 -10
-3 -17 -12 -17 -18 0 -29 16 -21 31 9 14 29 6 33 -14z m10 -50 c4 -20 -25 -34
-40 -19 -15 15 -1 44 19 40 10 -2 19 -11 21 -21z"/>
<path d="M7210 3140 c-6 -11 -7 -20 -1 -20 5 0 11 7 15 15 7 20 25 19 33 -1 4
-10 -6 -26 -26 -44 -42 -39 -39 -50 12 -48 36 1 38 2 10 5 -18 2 -33 7 -33 10
0 3 14 18 31 34 25 24 28 31 19 49 -14 26 -46 26 -60 0z"/>
<path d="M7299 3133 c-5 -14 -7 -39 -3 -55 12 -59 64 -42 64 21 0 61 -42 84
-61 34z m46 -34 c0 -32 -4 -44 -15 -44 -16 0 -26 54 -16 82 12 30 31 6 31 -38z"/>
<path d="M7392 3148 c-20 -20 -14 -33 7 -14 21 19 41 14 41 -9 0 -7 -13 -23
-30 -35 -42 -30 -39 -50 8 -49 30 2 32 3 10 6 -35 5 -35 18 -2 39 18 12 24 24
22 43 -3 29 -35 40 -56 19z"/>
<path d="M2602 3138 c-17 -17 -15 -83 4 -99 21 -17 49 0 49 32 0 20 -5 24 -27
24 -30 -1 -37 15 -14 34 10 8 16 9 21 1 3 -5 11 -10 17 -10 7 0 6 6 -2 15 -15
18 -32 19 -48 3z m43 -58 c4 -6 1 -18 -6 -26 -11 -13 -14 -13 -27 0 -8 8 -11
19 -8 25 9 14 33 14 41 1z"/>
<path d="M2747 3143 l33 -4 -21 -40 c-11 -22 -19 -47 -17 -55 2 -8 15 12 30
45 l26 61 -41 -2 c-37 -1 -38 -2 -10 -5z"/>
<path d="M7094 3135 c-11 -8 -14 -15 -6 -15 7 0 12 -15 12 -40 0 -22 5 -40 10
-40 6 0 10 25 10 55 0 30 -1 55 -3 55 -2 0 -12 -7 -23 -15z"/>
<path d="M7494 3135 c-11 -8 -14 -15 -6 -15 7 0 12 -15 12 -40 0 -22 5 -40 10
-40 6 0 10 25 10 55 0 30 -1 55 -3 55 -2 0 -12 -7 -23 -15z"/>
<path d="M2681 3079 c-7 -22 -11 -43 -8 -45 2 -2 9 14 16 37 7 22 11 43 8 45
-2 2 -9 -14 -16 -37z"/>
<path d="M7026 3074 c-4 -14 -5 -28 -3 -31 3 -2 8 8 11 23 4 14 5 28 3 31 -3
2 -8 -8 -11 -23z"/>
<path d="M2632 2928 c-28 -28 -2 -88 33 -74 23 8 18 45 -7 56 l-23 9 23 0 c13
1 20 5 17 11 -8 14 -28 13 -43 -2z m28 -48 c0 -5 -4 -10 -10 -10 -5 0 -10 5
-10 10 0 6 5 10 10 10 6 0 10 -4 10 -10z"/>
<path d="M2706 2928 c-3 -7 -9 -28 -15 -45 -6 -20 -6 -33 0 -33 5 0 9 6 9 14
0 8 4 26 9 40 7 18 15 23 30 19 16 -4 19 -9 11 -23 -12 -23 -13 -50 -1 -50 5
0 11 10 14 23 3 12 9 32 12 45 7 20 4 22 -29 22 -21 0 -38 -5 -40 -12z"/>
<path d="M496 2524 c-11 -10 -16 -34 -16 -74 0 -94 -12 -90 305 -90 317 0 305
-4 305 90 0 94 12 90 -305 90 -235 0 -276 -2 -289 -16z m74 -59 c0 -33 -4 -45
-15 -45 -10 0 -15 10 -15 30 0 17 -5 30 -12 30 -12 0 21 29 35 30 4 0 7 -20 7
-45z m80 35 c0 -5 -5 -10 -10 -10 -6 0 -6 -7 1 -19 7 -10 9 -26 6 -35 -8 -21
-57 -22 -57 -1 0 9 6 15 14 13 8 -2 15 2 15 7 0 6 -7 9 -15 7 -9 -2 -14 6 -14
23 0 21 5 25 30 25 17 0 30 -4 30 -10z m50 -35 c0 -25 -4 -45 -10 -45 -5 0
-10 14 -10 30 0 17 -5 30 -11 30 -8 0 -8 5 1 15 21 26 30 17 30 -30z m80 21
c0 -14 -5 -28 -11 -32 -8 -5 -8 -9 1 -14 13 -8 65 38 55 49 -4 3 -10 -1 -15
-9 -11 -18 -25 -6 -17 15 7 18 38 20 55 3 9 -9 12 -9 12 0 0 14 36 16 45 2 4
-6 13 -5 24 2 27 16 51 3 52 -29 l1 -28 7 30 c7 32 35 45 54 26 8 -8 4 -11
-13 -12 l-25 0 23 -9 c26 -11 30 -48 6 -57 -9 -3 -25 -1 -35 6 -12 7 -19 7
-19 1 0 -13 -47 -13 -56 1 -4 8 -9 8 -17 0 -21 -21 -47 -13 -47 14 0 29 -6 31
-26 10 -14 -13 -14 -15 0 -15 9 0 16 -4 16 -10 0 -6 -28 -10 -65 -10 -69 0
-77 6 -45 35 22 20 28 44 6 26 -10 -8 -16 -9 -21 -1 -10 16 4 30 31 30 19 0
24 -5 24 -24z"/>
<path d="M945 2450 c-3 -5 -1 -10 4 -10 6 0 11 5 11 10 0 6 -2 10 -4 10 -3 0
-8 -4 -11 -10z"/>
<path d="M1010 2450 c0 -5 5 -10 10 -10 6 0 10 5 10 10 0 6 -4 10 -10 10 -5 0
-10 -4 -10 -10z"/>
<path d="M6953 2518 c-4 -7 -9 -32 -10 -55 -3 -35 0 -43 18 -48 31 -10 58 19
42 44 -8 13 -9 21 -1 29 8 8 8 15 -2 27 -15 18 -36 20 -47 3z m35 -21 c2 -10
-3 -17 -12 -17 -18 0 -29 16 -21 31 9 14 29 6 33 -14z m10 -50 c4 -20 -25 -34
-40 -19 -15 15 -1 44 19 40 10 -2 19 -11 21 -21z"/>
<path d="M7600 2510 c-6 -11 -7 -20 -1 -20 5 0 11 7 15 15 7 20 25 19 33 -1 4
-10 -6 -26 -26 -44 -42 -39 -39 -50 12 -48 36 1 38 2 10 5 -18 2 -33 7 -33 10
0 3 14 18 31 34 25 24 28 31 19 49 -14 26 -46 26 -60 0z"/>
<path d="M7689 2503 c-5 -14 -7 -39 -3 -55 12 -59 64 -42 64 21 0 61 -42 84
-61 34z m46 -34 c0 -32 -4 -44 -15 -44 -16 0 -26 54 -16 82 12 30 31 6 31 -38z"/>
<path d="M7780 2510 c-6 -11 -7 -20 -1 -20 5 0 11 7 15 15 7 20 25 19 33 -1 4
-10 -6 -26 -26 -44 -42 -39 -39 -50 12 -48 36 1 38 2 10 5 -18 2 -33 7 -33 10
0 3 14 18 31 34 25 24 28 31 19 49 -14 26 -46 26 -60 0z"/>
<path d="M7884 2505 c-11 -8 -14 -15 -6 -15 7 0 12 -15 12 -40 0 -22 5 -40 10
-40 6 0 10 25 10 55 0 30 -1 55 -3 55 -2 0 -12 -7 -23 -15z"/>
<path d="M4930 2465 c0 -25 5 -45 10 -45 6 0 10 7 10 15 0 8 6 15 14 15 20 0
37 25 30 44 -4 10 -18 16 -35 16 -28 0 -29 -2 -29 -45z m45 15 c-3 -5 -10 -10
-16 -10 -5 0 -9 5 -9 10 0 6 7 10 16 10 8 0 12 -4 9 -10z"/>
<path d="M5071 2465 c-1 -26 2 -45 9 -45 5 0 10 20 10 45 0 25 -4 45 -8 45 -5
0 -9 -20 -11 -45z"/>
<path d="M5150 2500 c0 -5 -6 -10 -14 -10 -21 0 -38 -27 -31 -50 4 -14 15 -20
36 -20 28 0 29 2 29 45 0 25 -4 45 -10 45 -5 0 -10 -4 -10 -10z m-8 -45 c0 -5
-5 -11 -11 -13 -6 -2 -11 4 -11 13 0 9 5 15 11 13 6 -2 11 -8 11 -13z"/>
<path d="M7068 2440 c-2 -37 1 -59 7 -57 13 5 19 117 6 117 -5 0 -11 -27 -13
-60z"/>
<path d="M7117 2494 c-14 -14 -7 -26 8 -14 8 6 19 9 25 5 17 -11 11 -23 -12
-27 -15 -2 -23 -10 -23 -23 0 -16 7 -20 30 -20 30 -1 31 0 25 40 -4 30 -10 41
-25 43 -12 2 -24 0 -28 -4z m41 -56 c-7 -19 -38 -22 -38 -4 0 10 9 16 21 16
12 0 19 -5 17 -12z"/>
<path d="M7201 2451 l2 -46 6 40 c4 26 12 41 23 43 13 3 18 -6 21 -40 l4 -43
-1 45 c-1 42 -3 45 -28 46 -27 1 -28 -1 -27 -45z"/>
<path d="M7294 2458 c1 -40 3 -43 29 -44 26 -1 27 1 26 45 l-2 46 -6 -40 c-9
-57 -38 -61 -44 -6 l-4 41 1 -42z"/>
<path d="M7387 2494 c-14 -14 -7 -26 8 -14 11 9 19 10 26 3 8 -8 2 -15 -18
-25 -40 -19 -37 -43 8 -44 l35 -2 -5 42 c-5 31 -11 42 -26 44 -12 2 -24 0 -28
-4z m41 -56 c-7 -19 -38 -22 -38 -4 0 10 9 16 21 16 12 0 19 -5 17 -12z"/>
<path d="M7460 2453 c0 -24 5 -43 10 -43 6 0 10 15 10 33 0 18 4 37 10 43 6 6
3 10 -10 10 -17 0 -20 -7 -20 -43z"/>
<path d="M7523 2455 c0 -27 2 -38 4 -22 2 15 2 37 0 50 -2 12 -4 0 -4 -28z"/>
<path d="M5010 2481 c0 -6 8 -11 18 -12 12 0 11 -3 -6 -10 -30 -12 -23 -33 12
-37 26 -3 27 -1 24 30 -2 25 -8 34 -25 36 -13 2 -23 -1 -23 -7z"/>
<path d="M6953 2328 c-4 -7 -9 -32 -10 -55 -3 -35 0 -43 18 -48 31 -10 58 19
42 44 -8 13 -9 21 -1 29 8 8 8 15 -2 27 -15 18 -36 20 -47 3z m35 -21 c2 -10
-3 -17 -12 -17 -18 0 -29 16 -21 31 9 14 29 6 33 -14z m10 -50 c4 -20 -25 -34
-40 -19 -15 15 -1 44 19 40 10 -2 19 -11 21 -21z"/>
<path d="M7210 2320 c-6 -11 -7 -20 -1 -20 5 0 11 7 15 15 7 20 25 19 33 -1 4
-10 -6 -26 -26 -44 -42 -39 -39 -50 12 -48 36 1 38 2 10 5 -18 2 -33 7 -33 10
0 3 14 18 31 34 25 24 28 31 19 49 -14 26 -46 26 -60 0z"/>
<path d="M7299 2313 c-5 -14 -7 -39 -3 -55 12 -59 64 -42 64 21 0 61 -42 84
-61 34z m46 -34 c0 -32 -4 -44 -15 -44 -16 0 -26 54 -16 82 12 30 31 6 31 -38z"/>
<path d="M7392 2328 c-20 -20 -14 -33 7 -14 21 19 41 14 41 -9 0 -7 -13 -23
-30 -35 -42 -30 -39 -50 8 -49 30 2 32 3 10 6 -35 5 -35 18 -2 39 18 12 24 24
22 43 -3 29 -35 40 -56 19z"/>
<path d="M2604 2322 c-19 -12 -16 -102 3 -109 28 -11 48 11 48 53 1 55 -19 77
-51 56z m33 -17 c7 -20 -2 -29 -21 -22 -9 4 -13 13 -10 22 8 19 23 19 31 0z
m9 -46 c10 -17 -23 -46 -37 -32 -7 7 -9 19 -6 27 7 18 33 21 43 5z"/>
<path d="M2822 2318 c-7 -7 -12 -29 -12 -49 0 -73 62 -78 68 -5 5 54 -26 84
-56 54z m48 -48 c0 -9 -7 -25 -15 -36 -13 -16 -16 -17 -25 -4 -25 38 1 109 27
73 7 -9 13 -24 13 -33z"/>
<path d="M7094 2315 c-11 -8 -14 -15 -6 -15 7 0 12 -15 12 -40 0 -22 5 -40 10
-40 6 0 10 25 10 55 0 30 -1 55 -3 55 -2 0 -12 -7 -23 -15z"/>
<path d="M7494 2315 c-11 -8 -14 -15 -6 -15 7 0 12 -15 12 -40 0 -22 5 -40 10
-40 6 0 10 25 10 55 0 30 -1 55 -3 55 -2 0 -12 -7 -23 -15z"/>
<path d="M2740 2305 c-9 -10 -9 -15 -1 -15 6 0 11 -17 11 -40 0 -22 5 -40 10
-40 6 0 10 25 10 55 0 56 -8 67 -30 40z"/>
<path d="M2681 2259 c-7 -22 -11 -43 -8 -45 2 -2 9 14 16 37 7 22 11 43 8 45
-2 2 -9 -14 -16 -37z"/>
<path d="M7026 2254 c-4 -14 -5 -28 -3 -31 3 -2 8 8 11 23 4 14 5 28 3 31 -3
2 -8 -8 -11 -23z"/>
<path d="M2629 2113 c-1 -4 -2 -24 -2 -43 -2 -31 1 -35 23 -35 23 0 25 4 25
40 0 34 -3 40 -22 43 -13 2 -23 0 -24 -5z m31 -23 c0 -5 -2 -10 -4 -10 -3 0
-8 5 -11 10 -3 6 -1 10 4 10 6 0 11 -4 11 -10z m0 -30 c0 -5 -5 -10 -11 -10
-5 0 -7 5 -4 10 3 6 8 10 11 10 2 0 4 -4 4 -10z"/>
<path d="M2706 2109 c-2 -8 -9 -29 -15 -46 -5 -18 -7 -33 -3 -33 9 0 33 82 26
89 -2 2 -5 -2 -8 -10z"/>
<path d="M2740 2105 c-9 -10 -9 -15 -1 -15 6 0 11 -13 11 -30 0 -16 5 -30 10
-30 12 0 13 77 1 84 -5 3 -14 -1 -21 -9z"/>
<path d="M2797 2113 c-14 -13 -7 -74 8 -79 21 -8 45 14 45 40 0 34 -34 59 -53
39z m33 -38 c0 -14 -4 -25 -10 -25 -5 0 -10 11 -10 25 0 14 5 25 10 25 6 0 10
-11 10 -25z"/>
<path d="M496 1704 c-11 -10 -16 -34 -16 -74 0 -94 -12 -90 305 -90 317 0 305
-4 305 90 0 94 12 90 -305 90 -235 0 -276 -2 -289 -16z m74 -59 c0 -33 -4 -45
-15 -45 -10 0 -15 10 -15 30 0 17 -5 30 -12 30 -12 0 21 29 35 30 4 0 7 -20 7
-45z m80 35 c0 -5 -5 -10 -10 -10 -6 0 -6 -7 1 -19 7 -10 9 -26 6 -35 -8 -21
-57 -22 -57 -1 0 9 6 15 14 13 8 -2 15 2 15 7 0 6 -7 9 -15 7 -9 -2 -14 6 -14
23 0 21 5 25 30 25 17 0 30 -4 30 -10z m50 -35 c0 -25 -4 -45 -10 -45 -5 0
-10 14 -10 30 0 17 -5 30 -11 30 -8 0 -8 5 1 15 21 26 30 17 30 -30z m80 22
c0 -13 -5 -28 -12 -35 -9 -9 -9 -12 0 -12 7 0 12 -4 12 -10 0 -5 -13 -10 -30
-10 -35 0 -38 10 -10 35 22 20 28 44 6 26 -10 -8 -16 -9 -21 -1 -10 16 4 30
31 30 18 0 24 -5 24 -23z m61 -4 l1 -28 10 28 c11 31 44 36 64 10 13 -17 13
-17 14 0 0 14 10 17 61 17 54 0 60 -2 54 -17 -4 -10 -12 -30 -17 -45 -5 -16
-14 -28 -19 -28 -11 0 -11 12 0 43 8 20 6 26 -9 30 -10 2 -24 1 -31 -4 -10 -6
-11 -9 -1 -9 18 0 15 -50 -4 -57 -9 -3 -25 -1 -35 6 -12 7 -19 7 -19 1 0 -14
-47 -12 -53 3 -4 9 -8 8 -17 -3 -9 -11 -13 -12 -17 -2 -2 6 -13 12 -24 12 -18
0 -18 1 -2 35 20 42 43 46 44 8z"/>
<path d="M882 1645 c0 -16 2 -22 5 -12 2 9 2 23 0 30 -3 6 -5 -1 -5 -18z"/>
<path d="M936 1640 c-19 -6 -19 -7 -1 -13 20 -8 29 -4 24 11 -2 5 -13 6 -23 2z"/>
<path d="M6953 1698 c-4 -7 -9 -32 -10 -55 -3 -35 0 -43 18 -48 31 -10 58 19
42 44 -8 13 -9 21 -1 29 8 8 8 15 -2 27 -15 18 -36 20 -47 3z m35 -21 c2 -10
-3 -17 -12 -17 -18 0 -29 16 -21 31 9 14 29 6 33 -14z m10 -50 c4 -20 -25 -34
-40 -19 -15 15 -1 44 19 40 10 -2 19 -11 21 -21z"/>
<path d="M7600 1690 c-6 -11 -7 -20 -1 -20 5 0 11 7 15 15 7 20 25 19 33 -1 4
-10 -6 -26 -26 -44 -42 -39 -39 -50 12 -48 36 1 38 2 10 5 -18 2 -33 7 -33 10
0 3 14 18 31 34 25 24 28 31 19 49 -14 26 -46 26 -60 0z"/>
<path d="M7689 1683 c-5 -14 -7 -39 -3 -55 12 -59 64 -42 64 21 0 61 -42 84
-61 34z m46 -34 c0 -32 -4 -44 -15 -44 -16 0 -26 54 -16 82 12 30 31 6 31 -38z"/>
<path d="M7780 1690 c-6 -11 -7 -20 -1 -20 5 0 11 7 15 15 7 20 25 19 33 -1 4
-10 -6 -26 -26 -44 -42 -39 -39 -50 12 -48 36 1 38 2 10 5 -18 2 -33 7 -33 10
0 3 14 18 31 34 25 24 28 31 19 49 -14 26 -46 26 -60 0z"/>
<path d="M7884 1685 c-11 -8 -14 -15 -6 -15 7 0 12 -15 12 -40 0 -22 5 -40 10
-40 6 0 10 25 10 55 0 30 -1 55 -3 55 -2 0 -12 -7 -23 -15z"/>
<path d="M4930 1646 c0 -25 5 -46 10 -46 6 0 10 6 10 13 0 7 10 17 23 22 12 6
22 19 22 30 0 15 -8 21 -32 23 -33 3 -33 3 -33 -42z m40 14 c0 -5 -4 -10 -10
-10 -5 0 -10 5 -10 10 0 6 5 10 10 10 6 0 10 -4 10 -10z"/>
<path d="M5190 1680 c0 -5 -9 -10 -19 -10 -22 0 -35 -28 -25 -54 4 -10 17 -16
35 -16 28 0 29 2 29 45 0 25 -4 45 -10 45 -5 0 -10 -4 -10 -10z m-8 -45 c0 -5
-5 -11 -11 -13 -6 -2 -11 4 -11 13 0 9 5 15 11 13 6 -2 11 -8 11 -13z"/>
<path d="M5220 1645 c0 -25 5 -45 10 -45 6 0 10 20 10 45 0 25 -4 45 -10 45
-5 0 -10 -20 -10 -45z"/>
<path d="M7068 1620 c-2 -37 1 -59 7 -57 13 5 19 117 6 117 -5 0 -11 -27 -13
-60z"/>
<path d="M7117 1674 c-14 -14 -7 -26 8 -14 8 6 19 9 25 5 17 -11 11 -23 -12
-27 -15 -2 -23 -10 -23 -23 0 -16 7 -20 30 -20 30 -1 31 0 25 40 -4 30 -10 41
-25 43 -12 2 -24 0 -28 -4z m41 -56 c-7 -19 -38 -22 -38 -4 0 10 9 16 21 16
12 0 19 -5 17 -12z"/>
<path d="M7201 1631 l2 -46 6 40 c4 26 12 41 23 43 13 3 18 -6 21 -40 l4 -43
-1 45 c-1 42 -3 45 -28 46 -27 1 -28 -1 -27 -45z"/>
<path d="M7294 1638 c1 -40 3 -43 29 -44 26 -1 27 1 26 45 l-2 46 -6 -40 c-9
-57 -38 -61 -44 -6 l-4 41 1 -42z"/>
<path d="M7387 1674 c-14 -14 -7 -26 8 -14 11 9 19 10 26 3 8 -8 2 -15 -18
-25 -40 -19 -37 -43 8 -44 l35 -2 -5 42 c-5 31 -11 42 -26 44 -12 2 -24 0 -28
-4z m41 -56 c-7 -19 -38 -22 -38 -4 0 10 9 16 21 16 12 0 19 -5 17 -12z"/>
<path d="M7460 1633 c0 -24 5 -43 10 -43 6 0 10 15 10 33 0 18 4 37 10 43 6 6
3 10 -10 10 -17 0 -20 -7 -20 -43z"/>
<path d="M7523 1635 c0 -27 2 -38 4 -22 2 15 2 37 0 50 -2 12 -4 0 -4 -28z"/>
<path d="M5004 1646 c-7 -31 1 -46 26 -46 28 0 34 18 8 23 l-23 4 23 2 c30 1
26 35 -5 39 -17 3 -24 -3 -29 -22z"/>
<path d="M5070 1635 c0 -19 5 -35 10 -35 6 0 10 11 10 25 0 14 5 25 10 25 6 0
10 -11 10 -25 0 -14 5 -25 10 -25 6 0 10 16 10 35 0 32 -2 35 -30 35 -28 0
-30 -3 -30 -35z"/>
<path d="M5250 1635 c0 -19 5 -35 10 -35 6 0 10 11 10 25 0 14 5 25 10 25 6 0
10 -11 10 -25 0 -14 5 -25 10 -25 6 0 10 16 10 35 0 32 -2 35 -30 35 -28 0
-30 -3 -30 -35z"/>
<path d="M5325 1648 c-9 -41 0 -63 28 -66 26 -3 27 -1 27 42 0 42 -2 46 -25
46 -17 0 -26 -7 -30 -22z m35 -13 c0 -8 -4 -15 -10 -15 -5 0 -10 7 -10 15 0 8
5 15 10 15 6 0 10 -7 10 -15z"/>
<path d="M6953 1508 c-4 -7 -9 -32 -10 -55 -3 -35 0 -43 18 -48 31 -10 58 19
42 44 -8 13 -9 21 -1 29 8 8 8 15 -2 27 -15 18 -36 20 -47 3z m35 -21 c2 -10
-3 -17 -12 -17 -18 0 -29 16 -21 31 9 14 29 6 33 -14z m10 -50 c4 -20 -25 -34
-40 -19 -15 15 -1 44 19 40 10 -2 19 -11 21 -21z"/>
<path d="M7210 1500 c-6 -11 -7 -20 -1 -20 5 0 11 7 15 15 7 20 25 19 33 -1 4
-10 -6 -26 -26 -44 -42 -39 -39 -50 12 -48 36 1 38 2 10 5 -18 2 -33 7 -33 10
0 3 14 18 31 34 25 24 28 31 19 49 -14 26 -46 26 -60 0z"/>
<path d="M7299 1493 c-5 -14 -7 -39 -3 -55 12 -59 64 -42 64 21 0 61 -42 84
-61 34z m46 -34 c0 -32 -4 -44 -15 -44 -16 0 -26 54 -16 82 12 30 31 6 31 -38z"/>
<path d="M7392 1508 c-20 -20 -14 -33 7 -14 21 19 41 14 41 -9 0 -7 -13 -23
-30 -35 -42 -30 -39 -50 8 -49 30 2 32 3 10 6 -35 5 -35 18 -2 39 18 12 24 24
22 43 -3 29 -35 40 -56 19z"/>
<path d="M7094 1495 c-11 -8 -14 -15 -6 -15 7 0 12 -15 12 -40 0 -22 5 -40 10
-40 6 0 10 25 10 55 0 30 -1 55 -3 55 -2 0 -12 -7 -23 -15z"/>
<path d="M7494 1495 c-11 -8 -14 -15 -6 -15 7 0 12 -15 12 -40 0 -22 5 -40 10
-40 6 0 10 25 10 55 0 30 -1 55 -3 55 -2 0 -12 -7 -23 -15z"/>
<path d="M7026 1434 c-4 -14 -5 -28 -3 -31 3 -2 8 8 11 23 4 14 5 28 3 31 -3
2 -8 -8 -11 -23z"/>
<path d="M2596 1314 c-11 -10 -16 -34 -16 -74 0 -86 6 -90 155 -90 149 0 155
4 155 90 0 86 -6 90 -155 90 -99 0 -127 -3 -139 -16z m79 -59 c0 -33 -4 -41
-22 -43 -25 -4 -38 26 -29 64 5 19 12 25 29 22 18 -3 22 -9 22 -43z m100 0 c0
-36 -3 -40 -24 -40 -13 0 -26 6 -29 14 -3 9 1 11 17 6 12 -4 21 -2 21 4 0 6
-5 11 -11 11 -8 0 -8 4 0 14 10 11 7 14 -13 12 -20 -1 -26 -8 -31 -33 -3 -18
-10 -33 -15 -33 -5 0 -4 14 1 33 6 17 12 37 14 43 2 6 18 11 37 10 32 -1 33
-3 33 -41z m66 38 c1 -5 2 -24 2 -43 2 -31 -1 -35 -22 -35 -13 0 -26 6 -29 14
-3 10 2 11 19 6 21 -7 22 -6 11 8 -8 9 -11 21 -7 26 3 7 0 8 -9 5 -16 -6 -22
7 -9 19 9 9 43 9 44 0z"/>
<path d="M2640 1261 c0 -11 5 -23 10 -26 6 -4 10 5 10 19 0 14 -4 26 -10 26
-5 0 -10 -9 -10 -19z"/>
<path d="M496 884 c-11 -10 -16 -34 -16 -74 0 -94 -12 -90 305 -90 317 0 305
-4 305 90 0 94 12 90 -305 90 -235 0 -276 -2 -289 -16z m74 -59 c0 -33 -4 -45
-15 -45 -10 0 -15 10 -15 30 0 17 -5 30 -12 30 -12 0 21 29 35 30 4 0 7 -20 7
-45z m80 35 c0 -5 -5 -10 -10 -10 -6 0 -6 -7 1 -19 7 -10 9 -26 6 -35 -8 -21
-57 -22 -57 -1 0 9 6 15 14 13 8 -2 15 2 15 7 0 6 -7 9 -15 7 -9 -2 -14 6 -14
23 0 21 5 25 30 25 17 0 30 -4 30 -10z m50 -35 c0 -25 -4 -45 -10 -45 -5 0
-10 14 -10 30 0 17 -5 30 -11 30 -8 0 -8 5 1 15 21 26 30 17 30 -30z m345 27
c-4 -9 -12 -29 -17 -44 -5 -16 -14 -28 -19 -28 -11 0 -11 12 0 43 8 21 6 26
-10 30 -13 4 -19 0 -19 -12 0 -9 -5 -22 -12 -29 -9 -9 -9 -12 0 -12 7 0 12 -4
12 -10 0 -5 -13 -10 -30 -10 -35 0 -38 10 -10 35 22 20 28 44 7 26 -10 -7 -17
-7 -24 0 -8 8 -15 1 -24 -25 -13 -37 -29 -48 -29 -20 0 8 5 24 10 35 9 16 7
19 -14 19 -19 0 -27 -8 -36 -35 -6 -19 -16 -35 -21 -35 -11 0 -11 12 0 43 8
21 6 26 -10 30 -13 4 -19 0 -19 -12 0 -9 -5 -22 -12 -29 -9 -9 -9 -12 0 -12 7
0 12 -4 12 -10 0 -5 -13 -10 -30 -10 -35 0 -38 10 -10 35 22 20 28 44 6 26
-10 -8 -16 -9 -21 -1 -15 25 12 30 166 29 147 0 160 -1 154 -17z"/>
<path d="M6952 881 c-8 -4 -12 -19 -10 -32 2 -19 9 -24 31 -24 31 1 33 -3 13
-30 -12 -17 -16 -18 -32 -5 -17 14 -18 14 -5 -2 28 -36 61 -9 61 49 0 44 -27
64 -58 44z m38 -16 c13 -16 6 -35 -15 -35 -18 0 -28 17 -21 35 7 19 20 19 36
0z"/>
<path d="M7600 870 c-6 -11 -7 -20 -1 -20 5 0 11 7 15 15 7 20 25 19 33 -1 4
-10 -6 -26 -26 -44 -42 -39 -39 -50 12 -48 36 1 38 2 10 5 -18 2 -33 7 -33 10
0 3 14 18 31 34 25 24 28 31 19 49 -14 26 -46 26 -60 0z"/>
<path d="M7689 863 c-5 -14 -7 -39 -3 -55 12 -59 64 -42 64 21 0 61 -42 84
-61 34z m46 -34 c0 -32 -4 -44 -15 -44 -16 0 -26 54 -16 82 12 30 31 6 31 -38z"/>
<path d="M7780 870 c-6 -11 -7 -20 -1 -20 5 0 11 7 15 15 7 20 25 19 33 -1 4
-10 -6 -26 -26 -44 -42 -39 -39 -50 12 -48 36 1 38 2 10 5 -18 2 -33 7 -33 10
0 3 14 18 31 34 25 24 28 31 19 49 -14 26 -46 26 -60 0z"/>
<path d="M7884 865 c-11 -8 -14 -15 -6 -15 7 0 12 -15 12 -40 0 -22 5 -40 10
-40 6 0 10 25 10 55 0 30 -1 55 -3 55 -2 0 -12 -7 -23 -15z"/>
<path d="M4930 825 c0 -25 5 -45 10 -45 6 0 10 7 10 15 0 8 6 15 14 15 20 0
37 25 30 44 -4 10 -18 16 -35 16 -28 0 -29 -2 -29 -45z m45 15 c-3 -5 -10 -10
-16 -10 -5 0 -9 5 -9 10 0 6 7 10 16 10 8 0 12 -4 9 -10z"/>
<path d="M5071 825 c-1 -26 2 -45 9 -45 5 0 10 20 10 45 0 25 -4 45 -8 45 -5
0 -9 -20 -11 -45z"/>
<path d="M5150 860 c0 -5 -6 -10 -14 -10 -21 0 -38 -27 -31 -50 4 -14 15 -20
36 -20 28 0 29 2 29 45 0 25 -4 45 -10 45 -5 0 -10 -4 -10 -10z m-8 -45 c0 -5
-5 -11 -11 -13 -6 -2 -11 4 -11 13 0 9 5 15 11 13 6 -2 11 -8 11 -13z"/>
<path d="M7068 800 c-2 -37 1 -59 7 -57 13 5 19 117 6 117 -5 0 -11 -27 -13
-60z"/>
<path d="M7117 854 c-14 -14 -7 -26 8 -14 8 6 19 9 25 5 17 -11 11 -23 -12
-27 -15 -2 -23 -10 -23 -23 0 -16 7 -20 30 -20 30 -1 31 0 25 40 -4 30 -10 41
-25 43 -12 2 -24 0 -28 -4z m41 -56 c-7 -19 -38 -22 -38 -4 0 10 9 16 21 16
12 0 19 -5 17 -12z"/>
<path d="M7201 811 l2 -46 6 40 c4 26 12 41 23 43 13 3 18 -6 21 -40 l4 -43
-1 45 c-1 42 -3 45 -28 46 -27 1 -28 -1 -27 -45z"/>
<path d="M7294 818 c1 -40 3 -43 29 -44 26 -1 27 1 26 45 l-2 46 -6 -40 c-9
-57 -38 -61 -44 -6 l-4 41 1 -42z"/>
<path d="M7387 854 c-14 -14 -7 -26 8 -14 11 9 19 10 26 3 8 -8 2 -15 -18 -25
-40 -19 -37 -43 8 -44 l35 -2 -5 42 c-5 31 -11 42 -26 44 -12 2 -24 0 -28 -4z
m41 -56 c-7 -19 -38 -22 -38 -4 0 10 9 16 21 16 12 0 19 -5 17 -12z"/>
<path d="M7460 813 c0 -24 5 -43 10 -43 6 0 10 15 10 33 0 18 4 37 10 43 6 6
3 10 -10 10 -17 0 -20 -7 -20 -43z"/>
<path d="M7523 815 c0 -27 2 -38 4 -22 2 15 2 37 0 50 -2 12 -4 0 -4 -28z"/>
<path d="M5010 841 c0 -6 8 -11 18 -12 12 0 11 -3 -6 -10 -30 -12 -23 -33 12
-37 26 -3 27 -1 24 30 -2 25 -8 34 -25 36 -13 2 -23 -1 -23 -7z"/>
<path d="M6952 691 c-8 -4 -12 -19 -10 -32 2 -19 9 -24 31 -24 31 1 33 -3 13
-30 -12 -17 -16 -18 -32 -5 -17 14 -18 14 -5 -2 28 -36 61 -9 61 49 0 44 -27
64 -58 44z m38 -16 c13 -16 6 -35 -15 -35 -18 0 -28 17 -21 35 7 19 20 19 36
0z"/>
<path d="M7210 680 c-6 -11 -7 -20 -1 -20 5 0 11 7 15 15 7 20 25 19 33 -1 4
-10 -6 -26 -26 -44 -42 -39 -39 -50 12 -48 36 1 38 2 10 5 -18 2 -33 7 -33 10
0 3 14 18 31 34 25 24 28 31 19 49 -14 26 -46 26 -60 0z"/>
<path d="M7299 673 c-5 -14 -7 -39 -3 -55 12 -59 64 -42 64 21 0 61 -42 84
-61 34z m46 -34 c0 -32 -4 -44 -15 -44 -16 0 -26 54 -16 82 12 30 31 6 31 -38z"/>
<path d="M7392 688 c-20 -20 -14 -33 7 -14 21 19 41 14 41 -9 0 -7 -13 -23
-30 -35 -42 -30 -39 -50 8 -49 30 2 32 3 10 6 -35 5 -35 18 -2 39 18 12 24 24
22 43 -3 29 -35 40 -56 19z"/>
<path d="M7094 675 c-11 -8 -14 -15 -6 -15 7 0 12 -15 12 -40 0 -22 5 -40 10
-40 6 0 10 25 10 55 0 30 -1 55 -3 55 -2 0 -12 -7 -23 -15z"/>
<path d="M7494 675 c-11 -8 -14 -15 -6 -15 7 0 12 -15 12 -40 0 -22 5 -40 10
-40 6 0 10 25 10 55 0 30 -1 55 -3 55 -2 0 -12 -7 -23 -15z"/>
<path d="M7026 614 c-4 -14 -5 -28 -3 -31 3 -2 8 8 11 23 4 14 5 28 3 31 -3 2
-8 -8 -11 -23z"/>
<path d="M2596 494 c-11 -10 -16 -34 -16 -74 0 -83 10 -90 125 -90 115 0 125
7 125 90 0 83 -10 90 -125 90 -72 0 -97 -4 -109 -16z m79 -59 c0 -33 -4 -41
-22 -43 -25 -4 -38 26 -29 64 5 19 12 25 29 22 18 -3 22 -9 22 -43z m33 -3
c-6 -23 -14 -42 -19 -42 -4 0 -3 15 2 33 6 17 13 38 15 46 10 32 12 2 2 -37z
m62 3 c0 -25 -4 -45 -10 -45 -5 0 -10 11 -10 24 0 14 -5 28 -10 31 -8 5 -7 11
1 21 20 25 29 15 29 -31z"/>
<path d="M2640 441 c0 -11 5 -23 10 -26 6 -4 10 5 10 19 0 14 -4 26 -10 26 -5
0 -10 -9 -10 -19z"/>
</g>
</svg>
